<svg width="500" height="280" viewBox="0 0 500 280" fill="none" xmlns="http://www.w3.org/2000/svg">
<mask id="path-1-outside-1_124_1037" maskUnits="userSpaceOnUse" x="17" y="52" width="471" height="190" fill="black">
<rect fill="white" x="17" y="52" width="471" height="190"/>
<path d="M94.7031 236V194.123H23.0986V155.865L91.8596 58.152H149.764V156.382H174.58V194.123H149.764V236H94.7031ZM61.0981 156.382H94.7031V102.097L61.0981 156.382ZM401.167 236V194.123H329.562V155.865L398.323 58.152H456.227V156.382H481.043V194.123H456.227V236H401.167ZM367.562 156.382H401.167V102.097L367.562 156.382Z"/>
</mask>
<path d="M94.7031 236H88.7031V242H94.7031V236ZM94.7031 194.123H100.703V188.123H94.7031V194.123ZM23.0986 194.123H17.0986V200.123H23.0986V194.123ZM23.0986 155.865L18.1918 152.412L17.0986 153.965V155.865H23.0986ZM91.8596 58.152V52.152H88.7451L86.9528 54.699L91.8596 58.152ZM149.764 58.152H155.764V52.152H149.764V58.152ZM149.764 156.382H143.764V162.382H149.764V156.382ZM174.58 156.382H180.58V150.382H174.58V156.382ZM174.58 194.123V200.123H180.58V194.123H174.58ZM149.764 194.123V188.123H143.764V194.123H149.764ZM149.764 236V242H155.764V236H149.764ZM61.0981 156.382L55.9965 153.224L50.3272 162.382H61.0981V156.382ZM94.7031 156.382V162.382H100.703V156.382H94.7031ZM94.7031 102.097H100.703V81.0055L89.6015 98.9389L94.7031 102.097ZM100.703 236V194.123H88.7031V236H100.703ZM94.7031 188.123H23.0986V200.123H94.7031V188.123ZM29.0986 194.123V155.865H17.0986V194.123H29.0986ZM28.0054 159.318L96.7664 61.605L86.9528 54.699L18.1918 152.412L28.0054 159.318ZM91.8596 64.152H149.764V52.152H91.8596V64.152ZM143.764 58.152V156.382H155.764V58.152H143.764ZM149.764 162.382H174.58V150.382H149.764V162.382ZM168.58 156.382V194.123H180.58V156.382H168.58ZM174.58 188.123H149.764V200.123H174.58V188.123ZM143.764 194.123V236H155.764V194.123H143.764ZM149.764 230H94.7031V242H149.764V230ZM61.0981 162.382H94.7031V150.382H61.0981V162.382ZM100.703 156.382V102.097H88.7031V156.382H100.703ZM89.6015 98.9389L55.9965 153.224L66.1997 159.54L99.8047 105.255L89.6015 98.9389ZM401.167 236H395.167V242H401.167V236ZM401.167 194.123H407.167V188.123H401.167V194.123ZM329.562 194.123H323.562V200.123H329.562V194.123ZM329.562 155.865L324.656 152.412L323.562 153.965V155.865H329.562ZM398.323 58.152V52.152H395.209L393.417 54.699L398.323 58.152ZM456.227 58.152H462.227V52.152H456.227V58.152ZM456.227 156.382H450.227V162.382H456.227V156.382ZM481.043 156.382H487.043V150.382H481.043V156.382ZM481.043 194.123V200.123H487.043V194.123H481.043ZM456.227 194.123V188.123H450.227V194.123H456.227ZM456.227 236V242H462.227V236H456.227ZM367.562 156.382L362.46 153.224L356.791 162.382H367.562V156.382ZM401.167 156.382V162.382H407.167V156.382H401.167ZM401.167 102.097H407.167V81.0055L396.065 98.9389L401.167 102.097ZM407.167 236V194.123H395.167V236H407.167ZM401.167 188.123H329.562V200.123H401.167V188.123ZM335.562 194.123V155.865H323.562V194.123H335.562ZM334.469 159.318L403.23 61.605L393.417 54.699L324.656 152.412L334.469 159.318ZM398.323 64.152H456.227V52.152H398.323V64.152ZM450.227 58.152V156.382H462.227V58.152H450.227ZM456.227 162.382H481.043V150.382H456.227V162.382ZM475.043 156.382V194.123H487.043V156.382H475.043ZM481.043 188.123H456.227V200.123H481.043V188.123ZM450.227 194.123V236H462.227V194.123H450.227ZM456.227 230H401.167V242H456.227V230ZM367.562 162.382H401.167V150.382H367.562V162.382ZM407.167 156.382V102.097H395.167V156.382H407.167ZM396.065 98.9389L362.46 153.224L372.664 159.54L406.269 105.255L396.065 98.9389Z" fill="white" mask="url(#path-1-outside-1_124_1037)"/>
<g clip-path="url(#clip0_124_1037)">
<mask id="mask0_124_1037" style="mask-type:luminance" maskUnits="userSpaceOnUse" x="147" y="37" width="205" height="205">
<path d="M351.314 139.186C351.314 82.7816 305.59 37.0571 249.186 37.0571C192.782 37.0571 147.057 82.7816 147.057 139.186C147.057 195.59 192.782 241.314 249.186 241.314C305.59 241.314 351.314 195.59 351.314 139.186Z" fill="white"/>
</mask>
<g mask="url(#mask0_124_1037)">
<path d="M351.314 139.186C351.314 82.7816 305.59 37.0571 249.186 37.0571C192.782 37.0571 147.057 82.7816 147.057 139.186C147.057 195.59 192.782 241.314 249.186 241.314C305.59 241.314 351.314 195.59 351.314 139.186Z" fill="#202123"/>
<path d="M272.335 131.142C274.208 131.142 275.723 129.628 275.723 127.755V120.56H253.287V127.329H268.947V127.755C268.947 129.628 270.462 131.142 272.335 131.142Z" fill="white"/>
<path d="M222.655 157.811H229.424H244.8V151.036H229.424H222.655H214.771V127.335H244.807V120.567H211.383C209.51 120.567 207.995 122.081 207.995 123.954V154.43C207.995 156.303 209.51 157.818 211.383 157.818H222.655V157.811Z" fill="white"/>
<path d="M286.988 162.463C285.115 162.463 283.6 163.978 283.6 165.851V166.277H262.943V166.311H250.852V166.277H229.424V158.67H222.655V169.665C222.655 171.538 224.17 173.053 226.043 173.053H290.376V165.858C290.376 163.985 288.861 162.47 286.988 162.47V162.463Z" fill="white"/>
<path d="M252.428 160.469V157.811V151.036V148.378V143.435H245.659V148.378V151.036V157.811V160.469V165.459H252.428V160.469Z" fill="white"/>
<path d="M275.716 150.617C275.716 148.744 274.201 147.229 272.328 147.229C270.455 147.229 268.94 148.744 268.94 150.617V151.043H253.28V157.818H275.716V150.623V150.617Z" fill="white"/>
<path d="M252.428 135.801H226.036C224.163 135.801 222.648 137.316 222.648 139.189V150.184H229.417V142.577H245.646L252.421 142.583L283.593 142.577V143.003C283.593 144.876 285.108 146.39 286.981 146.39C288.854 146.39 290.369 144.876 290.369 143.003V135.808H252.421L252.428 135.801Z" fill="white"/>
<path d="M290.376 108.713C290.376 110.586 288.861 112.101 286.988 112.101H252.462V134.949H245.686V112.101H214.764V112.527C214.764 114.4 213.249 115.914 211.376 115.914C209.503 115.914 207.989 114.4 207.989 112.527V108.72C207.989 106.847 209.503 105.332 211.376 105.332H290.369V108.72L290.376 108.713Z" fill="white"/>
<path d="M243.678 90.4963V93.0996H245.612V95.1755H243.678V98.3468H245.7V100.423H241.277V88.4271H245.646V90.503H243.678V90.4963Z" fill="white"/>
<path d="M249.933 92.6736V91.2198C249.933 90.9358 249.872 90.7126 249.75 90.5571C249.628 90.4016 249.459 90.3272 249.243 90.3272C249.027 90.3272 248.858 90.4016 248.736 90.5571C248.614 90.7126 248.553 90.929 248.553 91.2198V92.0244C248.553 92.1935 248.574 92.349 248.607 92.4842C248.641 92.6195 248.709 92.748 248.81 92.8629C248.912 92.9779 249.067 93.0928 249.263 93.2145C249.466 93.3362 249.737 93.4715 250.075 93.6338L250.643 93.8907C250.961 94.0395 251.231 94.2085 251.447 94.3979C251.664 94.5872 251.84 94.8036 251.968 95.0605C252.097 95.3175 252.191 95.615 252.252 95.9599C252.306 96.3115 252.34 96.7172 252.34 97.1838V97.461C252.34 98.4685 252.063 99.2394 251.515 99.7803C250.967 100.321 250.196 100.592 249.202 100.592C248.208 100.592 247.451 100.321 246.924 99.7871C246.396 99.2529 246.133 98.4753 246.133 97.4542V96.1695H248.533V97.6233C248.533 97.9073 248.594 98.1304 248.716 98.286C248.837 98.4415 249.013 98.5159 249.236 98.5159C249.459 98.5159 249.622 98.4415 249.75 98.2927C249.879 98.144 249.94 97.9276 249.94 97.6436V96.7848C249.94 96.6022 249.919 96.4467 249.885 96.3115C249.852 96.183 249.784 96.0613 249.689 95.9531C249.595 95.8449 249.453 95.73 249.263 95.6218C249.074 95.5136 248.824 95.3783 248.499 95.2296L247.85 94.9185C247.532 94.7698 247.262 94.6007 247.045 94.4046C246.829 94.2085 246.653 93.9854 246.525 93.7217C246.396 93.458 246.302 93.1537 246.241 92.8021C246.187 92.4504 246.153 92.0447 246.153 91.5781V91.3753C246.153 90.3678 246.417 89.5969 246.944 89.0627C247.471 88.5285 248.222 88.2581 249.209 88.2581C250.196 88.2581 250.967 88.5285 251.508 89.0695C252.042 89.6104 252.313 90.3813 252.313 91.3753V92.6803H249.933V92.6736Z" fill="white"/>
<path d="M258.574 90.4964H256.83V100.416H254.429V90.4964H252.678V88.4205H258.574V90.4964Z" fill="white"/>
<path d="M238.262 190.248V180.464L238.194 180.328H237.356V178.252H240.662V190.248H238.262Z" fill="white"/>
<path d="M243.779 186.015V187.455C243.779 187.624 243.8 187.766 243.84 187.881C243.881 187.996 243.928 188.084 243.996 188.145C244.057 188.206 244.131 188.253 244.219 188.287C244.307 188.321 244.388 188.341 244.469 188.341C244.571 188.341 244.665 188.321 244.746 188.287C244.827 188.253 244.895 188.206 244.963 188.145C245.024 188.084 245.071 187.996 245.111 187.881C245.152 187.766 245.166 187.618 245.166 187.435V184.953H245.01C244.915 185.089 244.814 185.204 244.699 185.285C244.584 185.373 244.462 185.44 244.334 185.501C244.205 185.555 244.063 185.596 243.921 185.623C243.779 185.65 243.637 185.657 243.502 185.657C243.225 185.657 242.961 185.609 242.704 185.521C242.447 185.434 242.217 185.285 242.021 185.082C241.818 184.886 241.663 184.622 241.548 184.311C241.433 184 241.379 183.628 241.379 183.209V181.221C241.379 180.693 241.453 180.24 241.602 179.848C241.751 179.456 241.96 179.131 242.238 178.868C242.515 178.604 242.846 178.408 243.232 178.279C243.617 178.151 244.05 178.083 244.516 178.083C244.983 178.083 245.409 178.144 245.788 178.273C246.166 178.401 246.484 178.591 246.748 178.854C247.012 179.118 247.214 179.449 247.363 179.841C247.512 180.234 247.586 180.693 247.586 181.221V187.307C247.586 187.834 247.512 188.294 247.37 188.686C247.228 189.078 247.025 189.403 246.761 189.667C246.498 189.923 246.173 190.113 245.794 190.241C245.409 190.37 244.99 190.431 244.537 190.431C244.057 190.431 243.624 190.363 243.245 190.235C242.86 190.106 242.535 189.903 242.258 189.646C241.981 189.383 241.771 189.058 241.622 188.666C241.474 188.28 241.399 187.827 241.399 187.313V186.029H243.8L243.779 186.015ZM245.166 181.045C245.166 180.883 245.145 180.748 245.105 180.633C245.064 180.518 245.01 180.43 244.949 180.355C244.888 180.288 244.814 180.234 244.726 180.2C244.638 180.166 244.55 180.146 244.462 180.146C244.374 180.146 244.28 180.166 244.199 180.2C244.111 180.234 244.036 180.288 243.975 180.355C243.915 180.423 243.861 180.518 243.82 180.633C243.779 180.748 243.759 180.883 243.759 181.045V182.573C243.759 182.736 243.779 182.871 243.813 182.986C243.847 183.101 243.894 183.189 243.962 183.249C244.023 183.31 244.097 183.358 244.178 183.385C244.259 183.412 244.347 183.425 244.456 183.425C244.55 183.425 244.638 183.412 244.719 183.385C244.8 183.358 244.882 183.31 244.949 183.249C245.017 183.189 245.071 183.101 245.111 182.986C245.152 182.871 245.172 182.736 245.172 182.573V181.045H245.166Z" fill="white"/>
<path d="M248.31 179.767C248.432 179.395 248.614 179.084 248.858 178.834C249.101 178.584 249.412 178.394 249.791 178.266C250.169 178.138 250.622 178.077 251.163 178.077C251.704 178.077 252.184 178.138 252.583 178.266C252.982 178.394 253.314 178.584 253.571 178.841C253.828 179.098 254.017 179.416 254.145 179.781C254.274 180.146 254.335 180.585 254.335 181.072V181.417C254.335 181.762 254.294 182.08 254.206 182.37C254.118 182.661 254.003 182.911 253.848 183.128C253.692 183.344 253.517 183.506 253.327 183.621C253.131 183.743 252.935 183.811 252.725 183.838V184.007C252.942 184.027 253.145 184.102 253.341 184.21C253.537 184.325 253.706 184.494 253.861 184.724C254.017 184.954 254.139 185.238 254.22 185.589C254.308 185.941 254.348 186.353 254.348 186.833V187.28C254.348 187.807 254.287 188.26 254.159 188.652C254.03 189.044 253.841 189.369 253.577 189.633C253.314 189.896 252.989 190.093 252.59 190.221C252.191 190.35 251.725 190.417 251.177 190.417C250.629 190.417 250.176 190.356 249.791 190.228C249.405 190.099 249.088 189.91 248.837 189.646C248.587 189.383 248.411 189.051 248.29 188.659C248.168 188.267 248.107 187.807 248.107 187.28V186.833C248.107 186.38 248.141 185.975 248.222 185.636C248.296 185.292 248.405 185.008 248.54 184.771C248.675 184.534 248.837 184.358 249.02 184.23C249.202 184.102 249.399 184.027 249.601 184.007V183.838C249.399 183.818 249.202 183.743 249.02 183.615C248.837 183.486 248.682 183.324 248.547 183.121C248.418 182.918 248.31 182.668 248.236 182.377C248.161 182.086 248.121 181.769 248.121 181.424V181.079C248.121 180.579 248.181 180.139 248.303 179.767H248.31ZM250.514 187.455C250.514 187.624 250.535 187.766 250.575 187.875C250.616 187.983 250.663 188.071 250.731 188.138C250.792 188.206 250.873 188.26 250.961 188.294C251.048 188.328 251.143 188.348 251.238 188.348C251.339 188.348 251.434 188.328 251.522 188.294C251.61 188.26 251.684 188.206 251.745 188.138C251.806 188.071 251.86 187.983 251.9 187.875C251.941 187.766 251.961 187.624 251.961 187.455V185.846C251.961 185.569 251.9 185.359 251.779 185.204C251.657 185.048 251.481 184.974 251.238 184.974C250.994 184.974 250.819 185.048 250.697 185.204C250.575 185.359 250.514 185.569 250.514 185.846V187.455ZM250.535 182.039C250.535 182.188 250.555 182.316 250.595 182.425C250.636 182.533 250.683 182.621 250.751 182.688C250.812 182.756 250.886 182.803 250.974 182.83C251.062 182.857 251.15 182.871 251.238 182.871C251.326 182.871 251.42 182.857 251.502 182.83C251.589 182.803 251.664 182.756 251.725 182.688C251.786 182.621 251.84 182.533 251.88 182.425C251.921 182.316 251.941 182.188 251.941 182.039V181.045C251.941 180.876 251.921 180.734 251.88 180.619C251.84 180.504 251.786 180.416 251.725 180.355C251.664 180.295 251.589 180.247 251.508 180.213C251.427 180.18 251.339 180.159 251.231 180.159C251.136 180.159 251.048 180.18 250.967 180.213C250.879 180.247 250.805 180.295 250.744 180.355C250.683 180.416 250.629 180.504 250.589 180.619C250.548 180.734 250.528 180.876 250.528 181.045V182.039H250.535Z" fill="white"/>
<path d="M254.937 178.252H260.711V180.328H257.337V182.215H257.391C257.668 181.999 257.946 181.829 258.236 181.721C258.527 181.613 258.811 181.552 259.082 181.552C259.393 181.552 259.663 181.606 259.907 181.721C260.15 181.836 260.353 181.999 260.522 182.201C260.691 182.404 260.826 182.654 260.914 182.938C261.009 183.222 261.049 183.547 261.049 183.899V187.293C261.049 188.307 260.792 189.085 260.278 189.626C259.765 190.167 259.014 190.431 258.033 190.431C257.053 190.431 256.255 190.16 255.714 189.619C255.173 189.078 254.903 188.301 254.903 187.3V185.589H257.303V187.476C257.303 187.76 257.364 187.983 257.486 188.138C257.607 188.294 257.783 188.368 258.006 188.368C258.23 188.368 258.385 188.294 258.493 188.145C258.601 187.996 258.656 187.773 258.656 187.476V184.101C258.656 183.966 258.635 183.845 258.601 183.743C258.568 183.642 258.52 183.561 258.466 183.493C258.412 183.432 258.345 183.378 258.27 183.344C258.196 183.31 258.121 183.29 258.054 183.29C257.905 183.29 257.763 183.337 257.635 183.439C257.506 183.54 257.405 183.689 257.337 183.892V184.987H254.937V178.266V178.252Z" fill="white"/>
<path d="M182.422 111.655L184.099 108.416L165.706 98.9015L168.005 94.4521L186.398 103.966L188.075 100.727L191.922 102.715L186.269 113.643L182.422 111.655Z" fill="white"/>
<path d="M182.645 125.591L158.681 118.328L160.135 113.534L170.338 116.624L171.096 114.123L160.892 111.032L162.346 106.238L186.31 113.5L184.856 118.295L175.268 115.394L174.51 117.896L184.099 120.797L182.645 125.591Z" fill="white"/>
<path d="M177.79 130.358L172.401 129.661L171.88 133.671L167.586 133.117L168.107 129.107L161.541 128.255L161 132.441L156.706 131.886L157.89 122.73L182.719 125.949L181.55 134.997L177.256 134.442L177.783 130.365L177.79 130.358Z" fill="white"/>
<path d="M162.88 148.71C162.528 148.757 162.238 148.831 162.028 148.946C161.812 149.055 161.643 149.19 161.521 149.339C161.392 149.487 161.311 149.656 161.257 149.839C161.21 150.028 161.196 150.211 161.223 150.4C161.25 150.589 161.304 150.765 161.399 150.934C161.494 151.103 161.616 151.245 161.778 151.354C161.933 151.469 162.129 151.55 162.366 151.604C162.603 151.658 162.894 151.665 163.252 151.617L168.891 150.907L169.52 155.877L164.232 156.547C163.144 156.682 162.177 156.648 161.338 156.445C160.493 156.242 159.763 155.884 159.147 155.37C158.532 154.856 158.032 154.227 157.66 153.463C157.288 152.706 157.038 151.84 156.916 150.873C156.794 149.9 156.815 149.014 156.977 148.196C157.139 147.378 157.457 146.661 157.93 146.039C158.404 145.417 159.032 144.903 159.81 144.504C160.588 144.105 161.521 143.834 162.61 143.699L175.207 142.11C176.296 141.975 177.263 142.002 178.121 142.191C178.973 142.381 179.704 142.725 180.305 143.212C180.907 143.699 181.387 144.321 181.746 145.065C182.104 145.816 182.348 146.674 182.469 147.641C182.591 148.608 182.564 149.508 182.395 150.339C182.226 151.164 181.901 151.901 181.428 152.55C180.955 153.2 180.339 153.727 179.575 154.139C178.811 154.545 177.891 154.822 176.83 154.958L171.508 155.627L170.879 150.657L176.519 149.947C176.87 149.9 177.161 149.825 177.391 149.71C177.614 149.595 177.783 149.467 177.898 149.318C178.013 149.169 178.094 149.007 178.142 148.818C178.189 148.629 178.202 148.446 178.182 148.257C178.155 148.067 178.101 147.891 178.006 147.722C177.912 147.553 177.79 147.411 177.648 147.296C177.499 147.181 177.303 147.1 177.06 147.046C176.81 146.992 176.512 146.992 176.16 147.033L162.887 148.71H162.88Z" fill="white"/>
<path d="M179.954 155.6C180.826 155.627 181.61 155.823 182.293 156.188C182.976 156.554 183.565 157.067 184.065 157.737C184.559 158.4 184.958 159.197 185.262 160.131C185.566 161.057 185.715 161.943 185.701 162.788C185.688 163.633 185.512 164.418 185.174 165.141C184.836 165.865 184.329 166.507 183.653 167.055C182.976 167.602 182.131 168.042 181.11 168.38L169.047 172.343C168.006 172.687 167.052 172.836 166.187 172.796C165.321 172.755 164.537 172.539 163.833 172.16C163.13 171.775 162.522 171.247 162.014 170.578C161.507 169.902 161.095 169.104 160.791 168.177C160.486 167.251 160.338 166.372 160.338 165.54C160.338 164.708 160.513 163.944 160.865 163.241C161.21 162.538 161.73 161.916 162.42 161.375C163.11 160.834 163.975 160.394 165.017 160.049L177.08 156.087C178.121 155.742 179.082 155.587 179.954 155.614V155.6ZM166.234 164.911C165.896 165.026 165.632 165.155 165.443 165.303C165.253 165.452 165.111 165.614 165.017 165.784C164.922 165.953 164.868 166.135 164.854 166.324C164.841 166.514 164.868 166.703 164.929 166.886C164.99 167.068 165.078 167.231 165.206 167.379C165.328 167.528 165.483 167.643 165.659 167.717C165.835 167.799 166.045 167.839 166.288 167.853C166.531 167.859 166.822 167.812 167.16 167.697L179.873 163.525C180.211 163.41 180.481 163.282 180.684 163.126C180.887 162.971 181.029 162.815 181.11 162.646C181.191 162.484 181.239 162.301 181.252 162.112C181.266 161.922 181.239 161.733 181.184 161.551C181.124 161.368 181.036 161.206 180.907 161.057C180.779 160.908 180.637 160.793 180.474 160.712C180.305 160.631 180.103 160.584 179.846 160.577C179.595 160.577 179.298 160.624 178.96 160.739L166.247 164.911H166.234Z" fill="white"/>
<path d="M189.988 171.91L176.532 181.498L176.715 181.809L191.632 174.723L194.904 180.308L173.3 192.966L170.988 189.017L185.363 181.214L185.201 180.937L170.034 187.381L168.371 184.541L181.408 174.452L181.245 174.175L167.431 182.932L165.098 178.949L186.702 166.291L189.995 171.91H189.988Z" fill="white"/>
<path d="M199.171 184.697L188.284 197.125L188.535 197.382L201.423 187.05L205.892 191.729L187.784 209.026L184.619 205.713L196.811 194.812L196.588 194.582L183.308 204.347L181.036 201.966L191.402 189.146L191.179 188.916L179.751 200.621L176.566 197.287L194.674 179.99L199.171 184.697Z" fill="white"/>
<path d="M204.385 194.44C205.095 193.927 205.832 193.609 206.596 193.48C207.36 193.352 208.144 193.399 208.942 193.629C209.74 193.852 210.545 194.244 211.349 194.792C212.161 195.34 212.817 195.955 213.324 196.631C213.831 197.307 214.169 198.038 214.345 198.815C214.521 199.6 214.507 200.411 214.304 201.256C214.101 202.102 213.702 202.967 213.101 203.853L205.96 214.347C205.345 215.254 204.675 215.957 203.965 216.45C203.255 216.944 202.498 217.255 201.707 217.384C200.916 217.505 200.111 217.458 199.3 217.235C198.481 217.012 197.67 216.626 196.865 216.079C196.054 215.531 195.405 214.922 194.898 214.266C194.397 213.604 194.066 212.894 193.91 212.123C193.755 211.352 193.789 210.547 194.005 209.695C194.221 208.85 194.641 207.971 195.256 207.065L202.397 196.57C203.012 195.664 203.675 194.954 204.385 194.44ZM199.191 210.175C198.989 210.473 198.86 210.737 198.799 210.973C198.738 211.21 198.725 211.42 198.752 211.616C198.779 211.805 198.847 211.981 198.955 212.143C199.063 212.305 199.191 212.434 199.354 212.542C199.509 212.65 199.685 212.725 199.874 212.765C200.064 212.806 200.253 212.806 200.442 212.765C200.632 212.718 200.821 212.63 201.017 212.488C201.213 212.346 201.409 212.13 201.612 211.832L209.138 200.77C209.341 200.472 209.47 200.202 209.537 199.958C209.605 199.715 209.618 199.498 209.584 199.316C209.551 199.133 209.476 198.964 209.368 198.802C209.26 198.64 209.125 198.511 208.969 198.403C208.814 198.295 208.638 198.22 208.448 198.18C208.259 198.139 208.077 198.132 207.894 198.166C207.711 198.2 207.515 198.295 207.319 198.443C207.116 198.592 206.914 198.815 206.711 199.113L199.185 210.175H199.191Z" fill="white"/>
<path d="M228.673 203.961L218.821 226.979L213.723 224.795L216.969 208.404L216.705 208.289L211.289 223.753L206.684 221.779L216.536 198.761L221.6 200.932L218.443 217.478L218.706 217.593L224.062 201.987L228.667 203.961H228.673Z" fill="white"/>
<path d="M232.818 204.921L230.553 221.272L230.871 221.333L235.172 205.361L238.41 205.963L236.673 222.414L237.024 222.482L240.764 206.402L245.686 207.315L238.809 231.509L233.285 230.488L234.57 218.249L234.252 218.188L231.033 230.069L225.549 229.055L227.889 204.022L232.812 204.935L232.818 204.921Z" fill="white"/>
<path d="M250.352 211.109L250.44 216.545L254.484 216.478L254.551 220.805L250.508 220.873L250.616 227.493L254.835 227.425L254.903 231.753L245.673 231.901L245.267 206.869L254.389 206.72L254.457 211.048L250.345 211.115L250.352 211.109Z" fill="white"/>
<path d="M264.735 205.118L271.699 229.318L266.763 230.177L262.49 214.145L262.138 214.206L263.524 230.738L258.588 231.597L257.053 206.45L264.735 205.118ZM261.786 224.72L261.043 220.454L265.519 219.676L266.263 223.943L261.786 224.72Z" fill="white"/>
<path d="M272.058 202.832L278.867 222.387L282.755 221.035L284.182 225.119L275.567 228.121L267.331 204.475L272.058 202.825V202.832Z" fill="white"/>
<path d="M287.935 200.114L284.702 201.804L294.304 220.156L289.869 222.475L280.267 204.124L277.034 205.814L275.026 201.98L285.926 196.273L287.935 200.107V200.114Z" fill="white"/>
<path d="M295.772 188.578L311.196 208.302L307.253 211.386L300.688 202.987L298.632 204.597L305.198 212.995L301.256 216.079L285.832 196.354L289.774 193.271L295.947 201.162L298.003 199.552L291.829 191.661L295.772 188.578Z" fill="white"/>
<path d="M318.573 191.384C318.864 191.594 319.121 191.736 319.357 191.797C319.587 191.864 319.803 191.884 319.993 191.864C320.182 191.844 320.365 191.783 320.527 191.675C320.689 191.567 320.825 191.445 320.939 191.289C321.054 191.134 321.129 190.965 321.176 190.776C321.223 190.586 321.23 190.404 321.19 190.208C321.149 190.018 321.068 189.822 320.933 189.619C320.797 189.416 320.588 189.214 320.297 189.004L315.699 185.657L318.647 181.606L322.955 184.744C323.84 185.386 324.523 186.076 324.997 186.806C325.47 187.537 325.754 188.294 325.855 189.092C325.957 189.89 325.882 190.688 325.632 191.492C325.382 192.297 324.97 193.102 324.395 193.886C323.82 194.677 323.191 195.313 322.522 195.793C321.846 196.273 321.122 196.584 320.351 196.712C319.58 196.841 318.769 196.787 317.93 196.543C317.092 196.3 316.226 195.854 315.341 195.211L305.069 187.739C304.183 187.097 303.494 186.407 303.007 185.684C302.52 184.96 302.223 184.21 302.114 183.446C302.013 182.675 302.081 181.897 302.337 181.106C302.588 180.315 303 179.524 303.575 178.733C304.15 177.941 304.785 177.306 305.475 176.819C306.165 176.332 306.909 176.014 307.693 175.866C308.484 175.717 309.295 175.751 310.134 175.98C310.972 176.21 311.824 176.636 312.69 177.265L317.031 180.423L314.083 184.473L309.485 181.126C309.194 180.917 308.93 180.775 308.687 180.7C308.443 180.626 308.234 180.606 308.051 180.633C307.869 180.66 307.693 180.727 307.531 180.829C307.368 180.93 307.233 181.059 307.118 181.214C307.003 181.37 306.929 181.539 306.881 181.728C306.834 181.917 306.827 182.1 306.854 182.283C306.881 182.465 306.969 182.661 307.111 182.871C307.253 183.08 307.47 183.29 307.761 183.5L318.58 191.371L318.573 191.384Z" fill="white"/>
<path d="M310.344 168.042C311.223 166.162 312.413 164.945 313.9 164.377C315.388 163.809 317.16 164.012 319.208 164.972L319.337 165.033C320.243 165.459 320.987 165.932 321.575 166.46C322.163 166.987 322.616 167.515 322.941 168.049C323.272 168.583 323.468 169.11 323.543 169.631C323.617 170.152 323.583 170.618 323.441 171.024L323.732 171.159C323.982 170.801 324.334 170.483 324.787 170.213C325.247 169.942 325.781 169.76 326.403 169.672C327.025 169.584 327.715 169.591 328.465 169.692C329.223 169.793 330.007 170.044 330.825 170.422L331.184 170.591C332.157 171.044 333.009 171.43 333.746 171.734C334.484 172.038 335.214 172.268 335.931 172.424L333.801 176.954C333.037 176.778 332.272 176.535 331.502 176.21C330.731 175.886 329.892 175.514 328.986 175.088L326.653 173.993C326.072 173.722 325.592 173.634 325.213 173.736C324.834 173.837 324.53 174.135 324.3 174.628L323.813 175.663L332.489 179.733L330.359 184.264L307.693 173.627L310.323 168.029L310.344 168.042ZM319.912 173.837L320.398 172.802C320.628 172.309 320.662 171.876 320.486 171.518C320.311 171.159 319.925 170.841 319.317 170.557L316.693 169.327C316.091 169.043 315.584 168.948 315.192 169.036C314.8 169.124 314.482 169.421 314.245 169.915L313.758 170.95L319.912 173.837Z" fill="white"/>
<path d="M318.62 158.048L323.861 159.508L324.949 155.614L329.121 156.777L328.033 160.672L334.409 162.45L335.545 158.386L339.717 159.549L337.236 168.441L313.116 161.72L315.564 152.936L319.736 154.099L318.634 158.061L318.62 158.048Z" fill="white"/>
<path d="M316.815 142.638L342.003 142.624L341.462 147.601L324.875 147.283L324.834 147.641L341.103 150.874L340.563 155.85L315.969 150.387L316.808 142.638H316.815ZM334.849 150.887L330.548 150.42L331.035 145.904L335.336 146.37L334.849 150.887Z" fill="white"/>
<path d="M320.689 129.147L320.885 132.792L341.563 131.69L341.827 136.694L321.149 137.796L321.345 141.441L317.024 141.671L316.368 129.384L320.689 129.154V129.147Z" fill="white"/>
<path d="M315.138 124.042L339.738 119.377L340.671 124.299L316.071 128.965L315.138 124.042Z" fill="white"/>
<path d="M313.752 119.011L331.772 111.35L331.657 111.012L312.69 115.901L311.081 111.161L335.701 105.792L338.209 113.176L315.361 123.758L313.752 119.018V119.011Z" fill="white"/>
<path d="M312.386 104.798L317.18 102.228L315.273 98.6646L319.087 96.6225L320.994 100.186L326.822 97.062L324.828 93.343L328.641 91.3009L333.003 99.4355L310.939 111.269L306.631 103.229L310.445 101.187L312.386 104.811V104.798Z" fill="white"/>
<path d="M246.342 241.274C190.05 239.705 145.529 192.635 147.098 136.342C148.667 80.0495 195.736 35.5291 252.029 37.0978C308.322 38.6666 352.842 85.7362 351.274 142.029C349.705 198.322 302.635 242.842 246.342 241.274ZM251.88 42.5074C198.57 41.0198 153.988 83.1802 152.507 136.491C151.02 189.802 193.187 234.383 246.498 235.864C299.809 237.352 344.39 195.184 345.871 141.874C347.359 88.5627 305.191 43.9815 251.88 42.5006V42.5074Z" fill="white"/>
<path d="M189.204 89.604C188.575 89.604 187.94 89.3876 187.426 88.9346C186.303 87.9541 186.182 86.2433 187.169 85.1208C194.418 76.8105 203.08 70.1432 212.911 65.3085C214.25 64.6458 215.873 65.2003 216.529 66.5391C217.192 67.878 216.637 69.5008 215.298 70.1567C206.116 74.6737 198.022 80.9014 191.246 88.6708C190.712 89.2862 189.961 89.5972 189.204 89.5972V89.604Z" fill="white"/>
<path d="M309.167 89.6037C308.41 89.6037 307.666 89.2926 307.125 88.6773C300.349 80.9079 292.255 74.6802 283.073 70.1632C281.734 69.5006 281.179 67.8845 281.842 66.5456C282.498 65.2067 284.121 64.6523 285.46 65.3149C295.292 70.1497 303.947 76.8169 311.202 85.1273C312.183 86.2498 312.068 87.9606 310.945 88.9411C310.431 89.3874 309.796 89.6105 309.167 89.6105V89.6037Z" fill="white"/>
<path d="M249.189 202.751C214.142 202.751 185.627 174.236 185.627 139.189C185.627 104.142 214.142 75.6271 249.189 75.6271C284.236 75.6271 312.751 104.142 312.751 139.189C312.751 174.236 284.236 202.751 249.189 202.751ZM249.189 81.0366C217.124 81.0366 191.037 107.124 191.037 139.189C191.037 171.254 217.124 197.341 249.189 197.341C281.254 197.341 307.341 171.254 307.341 139.189C307.341 107.124 281.254 81.0366 249.189 81.0366Z" fill="white"/>
<path d="M249.189 56.5719L250.244 58.7222L252.61 59.0603L250.9 60.7305L251.305 63.0904L249.189 61.9814L247.066 63.0904L247.471 60.7305L245.761 59.0603L248.127 58.7222L249.189 56.5719Z" fill="white"/>
<path d="M251.305 64.4427C251.089 64.4427 250.873 64.3886 250.677 64.2872L249.189 63.5028L247.701 64.2872C247.248 64.5239 246.694 64.4833 246.275 64.1858C245.855 63.8815 245.652 63.3676 245.734 62.8604L246.018 61.2038L244.814 60.0272C244.442 59.6688 244.314 59.1279 244.469 58.641C244.631 58.1541 245.051 57.7958 245.558 57.7214L247.221 57.478L247.965 55.9701C248.195 55.5102 248.662 55.2195 249.175 55.2195C249.689 55.2195 250.163 55.5102 250.386 55.9701L251.13 57.478L252.793 57.7214C253.3 57.7958 253.726 58.1541 253.888 58.641C254.051 59.1279 253.916 59.6688 253.544 60.0272L252.34 61.2038L252.624 62.8604C252.712 63.3676 252.502 63.8815 252.09 64.1858C251.853 64.3548 251.576 64.4427 251.292 64.4427H251.305ZM248.601 59.9866C248.736 60.1895 248.817 60.4329 248.824 60.6763C249.06 60.6087 249.311 60.6087 249.547 60.6763C249.561 60.4329 249.635 60.1895 249.77 59.9866C249.541 59.8987 249.338 59.75 249.182 59.5606C249.027 59.7567 248.824 59.8987 248.594 59.9866H248.601Z" fill="white"/>
<path d="M267.446 59.2767L268.501 61.427L270.868 61.7651L269.157 63.4353L269.563 65.7952L267.446 64.6863L265.323 65.7952L265.729 63.4353L264.018 61.7651L266.384 61.427L267.446 59.2767Z" fill="white"/>
<path d="M269.563 67.1476C269.346 67.1476 269.13 67.0935 268.934 66.992L267.446 66.2076L265.958 66.992C265.505 67.2287 264.951 67.1949 264.532 66.8906C264.112 66.5863 263.91 66.0724 263.998 65.5653L264.282 63.9086L263.078 62.732C262.713 62.3736 262.578 61.8327 262.733 61.3458C262.889 60.859 263.315 60.5006 263.828 60.4262L265.492 60.1828L266.236 58.6749C266.466 58.2151 266.932 57.9243 267.446 57.9243C267.96 57.9243 268.433 58.2151 268.656 58.6749L269.4 60.1828L271.064 60.4262C271.571 60.5006 271.997 60.859 272.159 61.3458C272.321 61.8327 272.186 62.3736 271.814 62.732L270.611 63.9086L270.895 65.5653C270.983 66.0724 270.773 66.5863 270.36 66.8906C270.124 67.0596 269.847 67.1476 269.563 67.1476ZM267.446 63.3338C267.568 63.3338 267.69 63.3474 267.811 63.3812C267.825 63.1377 267.899 62.8943 268.034 62.6915C267.804 62.6036 267.602 62.4548 267.446 62.2655C267.291 62.4616 267.088 62.6036 266.858 62.6915C266.993 62.8943 267.074 63.1377 267.081 63.3812C267.203 63.3474 267.324 63.3338 267.446 63.3338Z" fill="white"/>
<path d="M230.932 59.2767L229.87 61.427L227.504 61.7651L229.214 63.4353L228.809 65.7952L230.932 64.6863L233.048 65.7952L232.643 63.4353L234.353 61.7651L231.987 61.427L230.932 59.2767Z" fill="white"/>
<path d="M233.048 67.1476C232.832 67.1476 232.615 67.0935 232.419 66.992L230.932 66.2076L229.444 66.992C228.991 67.2287 228.437 67.1881 228.017 66.8906C227.598 66.5863 227.395 66.0724 227.476 65.5653L227.76 63.9086L226.557 62.732C226.185 62.3736 226.056 61.8327 226.212 61.3458C226.374 60.859 226.793 60.5006 227.301 60.4262L228.964 60.1828L229.708 58.6749C229.938 58.2151 230.404 57.9243 230.918 57.9243C231.432 57.9243 231.905 58.2151 232.129 58.6749L232.872 60.1828L234.536 60.4262C235.043 60.5006 235.469 60.859 235.625 61.3458C235.78 61.8327 235.652 62.3736 235.28 62.732L234.076 63.9086L234.36 65.5653C234.448 66.0724 234.238 66.5863 233.819 66.8906C233.582 67.0596 233.305 67.1476 233.021 67.1476H233.048ZM230.932 63.3338C231.053 63.3338 231.175 63.3474 231.297 63.3812C231.31 63.1377 231.385 62.8943 231.52 62.6915C231.29 62.6036 231.087 62.4548 230.932 62.2655C230.776 62.4616 230.573 62.6036 230.343 62.6915C230.479 62.8943 230.56 63.1377 230.567 63.3812C230.688 63.3474 230.81 63.3338 230.932 63.3338Z" fill="white"/>
</g>
<path d="M353.343 139.186C353.343 81.6612 306.71 35.0286 249.186 35.0286C191.661 35.0286 145.029 81.6612 145.029 139.186C145.029 196.71 191.661 243.343 249.186 243.343C306.71 243.343 353.343 196.71 353.343 139.186Z" stroke="#202123" stroke-width="6"/>
</g>
<defs>
<clipPath id="clip0_124_1037">
<rect width="213" height="213" fill="white" transform="translate(143 33)"/>
</clipPath>
</defs>
</svg>
