<svg width="216" height="216" viewBox="0 0 216 216" fill="none" xmlns="http://www.w3.org/2000/svg">
<g clip-path="url(#clip0_40_310)">
<path d="M107.155 215.993C47.6087 215.53 -0.462834 166.708 -9.16364e-05 107.155C0.469357 47.6087 49.292 -0.462834 108.845 -9.16361e-05C168.398 0.462651 216.463 49.292 216 108.838C215.537 168.391 166.708 216.456 107.162 215.993H107.155Z" fill="#202123"/>
<path d="M110.823 6.74665C54.9926 5.19076 8.30254 49.3458 6.74665 105.177C5.19076 161.007 49.3458 207.691 105.177 209.247C161.007 210.803 207.691 166.648 209.247 110.817C210.803 54.9859 166.648 8.30254 110.817 6.74665H110.823ZM203.888 110.669C202.413 163.542 158.204 205.357 105.331 203.888C52.4575 202.413 10.6431 158.204 12.1118 105.331C13.5872 52.4575 57.7958 10.6364 110.669 12.1118C163.542 13.5872 205.357 57.7958 203.888 110.669Z" fill="white"/>
<path d="M44.9598 108C44.9598 142.759 73.2407 171.04 108 171.04C142.759 171.04 171.04 142.759 171.04 108C171.04 73.2407 142.759 44.9598 108 44.9598C73.2407 44.9598 44.9598 73.2407 44.9598 108ZM165.675 108C165.675 130.386 152.846 149.821 134.155 159.378L132.465 157.024C131.043 157.54 129.554 157.949 128.025 158.265L130.165 161.242C128.642 161.879 127.086 162.449 125.504 162.952L122.694 159.042C120.937 159.203 119.2 159.271 117.543 159.284L121.051 164.166C119.341 164.562 117.61 164.884 115.847 165.125L111.514 159.096C108.664 158.902 106.545 158.607 105.747 158.486L110.857 165.608C109.911 165.655 108.959 165.682 108 165.682C106.94 165.682 105.881 165.648 104.835 165.595L83.3003 135.905C82.804 137.26 82.2206 138.776 81.5365 140.405L99.2012 165.011C96.8137 164.642 94.4799 164.113 92.1997 163.462L79.263 145.435C78.579 146.837 77.8346 148.279 77.0231 149.741L85.0306 160.893C64.6297 152.001 50.3249 131.647 50.3249 108.007C50.3249 84.3666 64.2273 64.5961 84.1654 55.5089C77.5395 60.5186 72.9389 68.117 71.544 78.1498C71.1617 80.8994 71.3763 83.81 71.041 86.3785C70.5179 90.3689 66.5812 91.1736 63.8249 93.0447C57.93 97.0484 52.5984 109.502 63.4493 110.689C59.8078 106.042 62.725 99.3152 67.272 96.4918C70.5313 94.4665 74.9173 92.9978 75.5209 88.3972C76.0641 84.2392 75.5678 80.4501 76.5872 76.0306C83.1997 47.4076 125.021 45.275 136.636 70.31C139.399 76.272 139.212 80.1282 139.829 86.3718C140.358 91.7437 143.329 93.8227 146.408 97.4777C150.613 102.467 148.855 108.63 144.51 112.822L142.042 114.27C149.083 118.274 152.873 111.259 153.429 105.177C154.415 94.4732 145.341 93.8964 144.308 84.8025C144.007 82.1267 144.034 79.6118 143.504 76.8756C141.606 67.0171 136.08 59.0097 128.28 54.0335C150.103 62.2623 165.675 83.3472 165.675 108.013V108Z" fill="white"/>
<path d="M139.031 123.673C137.75 124.048 136.066 125.443 134.477 125.497C130.446 148.118 105.042 140.533 92.7899 129.601C90.6773 127.717 88.3368 125.316 86.7474 122.996L85.4598 129.125C94.9024 139.943 114.311 149.358 128.327 142.739C135.241 139.473 138.829 131.305 139.373 124.001C139.393 123.693 139.393 123.566 139.037 123.673H139.031Z" fill="white"/>
<path d="M129.353 113.861C123.592 110.616 114.036 110.837 108.087 113.553C104.218 115.323 101.32 119.099 96.5924 118.522C100.777 125.866 106.042 120.152 110.917 117.731C115.712 115.35 119.636 114.767 124.659 116.987C127.221 118.12 131.164 121.768 133.444 122.083C136.288 122.479 138.796 121.104 139.58 118.301C134.973 119.616 132.747 115.773 129.353 113.868V113.861Z" fill="white"/>
<path d="M75.541 106.431C76.7079 108.134 78.6058 110.515 78.8808 112.607C79.6252 118.227 75.1788 121.775 69.8338 121.426C65.7161 121.158 60.8607 117.523 57.8897 122.258C57.1923 123.371 56.7966 124.578 56.9575 125.913C60.5857 122.62 65.1461 125.839 69.3711 126.148C74.2467 126.503 78.5589 125.296 81.4493 121.192C85.8152 115.002 83.2869 107.356 75.5343 106.437L75.541 106.431Z" fill="white"/>
<path d="M116.658 102.87C111.836 103.554 108.362 106.082 106.665 110.676C111.896 108.476 117.496 106.994 123.237 107.323V84.2593H118.757V102.507C118.268 103.091 117.389 102.769 116.658 102.87Z" fill="white"/>
<path d="M107.235 86.9486C109.831 87.1364 112.171 88.4106 114.74 88.7392V84.3733C107.993 80.6446 97.5581 81.6774 93.0648 88.4441C92.5753 89.1751 91.576 90.9456 91.4486 91.7571C91.3949 92.0991 91.4486 92.1461 91.7839 92.0924C96.5455 90.1945 101.964 86.5596 107.235 86.9486Z" fill="white"/>
<path d="M72.9791 130.842C70.5917 131.016 68.07 130.379 65.81 130.614C62.4501 130.956 60.4717 134.383 60.7735 137.555C63.9657 133.686 68.9486 135.932 73.2072 135.771C74.4814 135.724 76.4262 135.329 77.573 134.765C80.2958 133.424 81.7712 129.91 81.1475 127.033C78.9747 129.42 76.2049 130.607 72.9858 130.849L72.9791 130.842Z" fill="white"/>
<path d="M139.916 98.3696C139.547 98.544 140.023 98.8726 140.03 98.9262C140.124 100.127 140.03 101.508 140.03 102.735C140.03 103.01 139.507 104.627 139.326 104.942C138.548 106.297 136.75 107.014 135.329 107.437C134.725 107.618 130.627 108.302 130.634 108.557C133.914 112.064 139.359 113.016 142.612 108.899C145.804 104.861 143.571 100.952 139.916 98.3696Z" fill="white"/>
<path d="M107.014 96.807C110.139 96.579 111.279 95.2243 110.696 92.0924H100.623C99.9791 96.3845 103.607 97.0551 107.014 96.807Z" fill="white"/>
<path d="M131.747 92.0991H127.549C127.046 95.4389 129.139 96.5857 131.694 96.807C131.694 96.807 131.7 96.807 131.707 96.807C132.626 96.807 133.364 96.5723 133.94 96.2906C135.335 95.62 135.785 94.3055 135.376 92.0924H131.741L131.747 92.0991Z" fill="white"/>
<path d="M134.873 88.9672V84.38C132.693 82.9113 129.367 83.0723 127.261 84.6013V89.1885C129.648 87.9076 132.391 88.0484 134.873 88.9672Z" fill="white"/>
<path d="M125.47 122.439C122.117 119.495 118.234 118.724 114.13 120.722L111.373 122.553C114.458 123.203 117.738 123.405 120.896 123.237C121.916 123.183 123.753 123.022 124.699 122.781C124.987 122.707 125.269 122.794 125.477 122.439H125.47Z" fill="white"/>
<path d="M116.685 128.87C116.061 128.984 115.31 129.367 115.183 130.057C115.035 130.835 115.028 132.814 115.759 133.276C116.376 133.665 121.554 133.659 122.285 133.35C123.425 132.874 123.297 129.729 122.332 129.165C121.513 128.689 117.697 128.689 116.685 128.87Z" fill="white"/>
<path d="M96.8607 146.106L101.119 152.041C105.7 153.248 110.414 153.852 115.122 153.852C119.83 153.852 124.404 153.262 128.931 152.088L126.201 148.285C116.477 150.458 106.236 149.734 96.8607 146.106Z" fill="white"/>
<path d="M72.161 110.642C72.2481 110.656 72.3353 110.669 72.4292 110.683C71.497 109.496 71.0007 108.174 70.8465 106.813C70.8532 106.551 70.88 106.27 70.9471 105.968C71.7183 102.273 76.5268 102.521 79.2362 100.382C87.6863 93.7019 83.2198 82.301 86.9955 73.6632C89.43 68.0969 94.8689 63.9724 100.838 62.8726C105.706 61.9739 112.077 63.5969 116.376 60.7198C116.618 60.5589 117.879 59.6066 117.423 59.2981C108.087 56.6356 96.7198 56.7899 88.9806 63.3286C83.6222 67.8554 81.1811 73.6498 80.4769 80.5708C79.9605 85.6475 81.0134 91.7705 77.1237 95.8011C76.5671 96.3778 75.9635 96.7936 75.3264 97.1423C72.9121 98.4434 70.0686 98.5976 67.8487 101.528C67.0306 102.608 66.2258 104.177 66.266 105.787C66.3264 108.262 68.3785 110.153 72.1744 110.649L72.161 110.642Z" fill="white"/>
<path d="M108 32.231L111.38 33.5186L111.199 29.9106L113.472 27.0939L109.978 26.1483L108 23.117L106.022 26.1483L102.528 27.0939L104.801 29.9106L104.62 33.5186L108 32.231Z" fill="white"/>
<path d="M89.9195 34.3167L93.2995 35.6043L93.1185 31.9963L95.392 29.1796L91.8979 28.234L89.9195 25.2027L87.9478 28.234L84.4538 29.1796L86.7273 31.9963L86.5395 35.6043L89.9195 34.3167Z" fill="white"/>
<path d="M126.08 34.3167L122.7 35.6043L122.888 31.9963L120.615 29.1796L124.109 28.234L126.08 25.2027L128.059 28.234L131.553 29.1796L129.279 31.9963L129.461 35.6043L126.08 34.3167Z" fill="white"/>
<path d="M72.1542 34.6185C62.5909 39.2996 54.1408 45.7109 47.0387 53.6714C46.9113 55.2005 46.8107 56.696 46.7303 58.1647C48.1923 57.8294 49.6274 57.5209 51.0425 57.2392C57.6818 49.7951 65.5753 43.8063 74.5082 39.4337C75.0045 38.2198 75.5343 36.9858 76.0976 35.7385C74.8167 35.3495 73.5022 34.9739 72.1542 34.6185Z" fill="white"/>
<path d="M76.0976 35.7385C76.0976 35.7385 76.0306 35.7183 75.9367 35.6915C75.9836 35.7049 76.0373 35.7183 76.0976 35.7385Z" fill="white"/>
<path d="M169.263 58.1647C169.189 56.696 169.089 55.2005 168.955 53.6714C161.852 45.7042 153.402 39.2996 143.839 34.6185C142.491 34.9739 141.177 35.3495 139.896 35.7385C140.459 36.9858 140.982 38.2198 141.478 39.4337C150.411 43.8063 158.311 49.7951 164.951 57.2392C166.359 57.5142 167.801 57.8227 169.263 58.1647Z" fill="white"/>
<path d="M30.0112 74.7228C29.8502 74.6557 29.7094 74.6155 29.5753 74.6021C29.4478 74.5887 29.3338 74.5954 29.2399 74.6155C29.146 74.6423 29.0723 74.6826 29.0119 74.7563C28.9516 74.8234 28.9046 74.8972 28.8778 74.9642C28.8308 75.0715 28.8107 75.1654 28.804 75.2459C28.804 75.3264 28.8241 75.4136 28.8711 75.494C28.918 75.5745 28.9918 75.6617 29.0924 75.7422C29.193 75.8227 29.3204 75.9031 29.4814 75.9702L33.9814 77.848L32.2042 82.1066L28.0529 80.3696C27.2347 80.0276 26.5708 79.6118 26.0544 79.1289C25.538 78.6393 25.1624 78.1028 24.9344 77.506C24.7064 76.9091 24.6125 76.2586 24.6528 75.5611C24.693 74.8569 24.8741 74.1259 25.196 73.3681C25.5179 72.6036 25.9001 71.9665 26.3495 71.4635C26.7988 70.9538 27.3152 70.5782 27.8987 70.3435C28.4754 70.1088 29.1259 70.0082 29.8368 70.0417C30.5477 70.082 31.3122 70.2698 32.1304 70.6118L41.4724 74.5149C42.2906 74.8569 42.9545 75.266 43.4776 75.7422C43.994 76.2183 44.3763 76.7481 44.611 77.3249C44.8457 77.9016 44.9463 78.532 44.8994 79.2094C44.8525 79.8867 44.6714 80.611 44.3562 81.3756C44.0343 82.1401 43.6453 82.7839 43.1759 83.307C42.7064 83.8301 42.1833 84.2191 41.5931 84.4739C41.0097 84.7288 40.3592 84.8428 39.6483 84.8227C38.9374 84.7958 38.1863 84.6148 37.3882 84.2861L33.2101 82.5425L34.9873 78.2839L39.4873 80.1617C39.6617 80.2355 39.8159 80.2757 39.9367 80.2891C40.0574 80.2958 40.1647 80.2891 40.2586 80.269C40.3525 80.2422 40.4262 80.2019 40.4799 80.1416C40.5335 80.0812 40.5872 80.0007 40.6341 79.8934C40.661 79.8197 40.6811 79.7392 40.6878 79.652C40.6878 79.5581 40.6744 79.4709 40.6274 79.3905C40.5805 79.31 40.5067 79.2228 40.4195 79.149C40.3256 79.0686 40.1915 78.9948 40.0171 78.921L30.0112 74.7429V74.7228Z" fill="white"/>
<path d="M38.1729 89.8994C38.7832 90.2549 39.2593 90.6908 39.6147 91.2072C39.9702 91.7236 40.1982 92.3137 40.2921 92.9911C40.3927 93.6617 40.3659 94.4061 40.2183 95.2176C40.0641 96.0291 39.8159 96.7399 39.4672 97.3502C39.1185 97.9605 38.6826 98.4501 38.1662 98.8256C37.6498 99.2012 37.0395 99.4493 36.342 99.5701C35.6446 99.6908 34.8733 99.6774 34.0216 99.5164L24.0693 97.6654C23.1975 97.5045 22.4598 97.2362 21.8562 96.8741C21.2526 96.5052 20.7697 96.0559 20.421 95.5194C20.0723 94.9829 19.8443 94.3726 19.737 93.6751C19.6297 92.9776 19.6565 92.2265 19.804 91.4151C19.9583 90.6036 20.1997 89.8994 20.535 89.3092C20.8703 88.7191 21.2928 88.2429 21.8092 87.8875C22.3256 87.532 22.9359 87.2973 23.6401 87.19C24.3443 87.076 25.1356 87.1028 26.0007 87.2638L35.9531 89.1148C36.8249 89.2757 37.5626 89.5373 38.1729 89.8927V89.8994ZM24.7869 91.737C24.6192 91.7034 24.465 91.6967 24.3376 91.7101C24.2101 91.7236 24.1028 91.7504 24.0156 91.7973C23.9285 91.8376 23.8614 91.9046 23.8212 91.9784C23.7742 92.0589 23.7474 92.1326 23.734 92.2131C23.7139 92.3271 23.7071 92.421 23.7206 92.5015C23.734 92.582 23.7742 92.6557 23.8413 92.7295C23.9083 92.8033 23.9955 92.8636 24.1095 92.924C24.2235 92.9844 24.3711 93.0313 24.5387 93.0648L35.2019 95.0499C35.3897 95.0835 35.544 95.0969 35.6647 95.0768C35.7854 95.0566 35.886 95.0298 35.9732 94.9896C36.0604 94.9493 36.1207 94.889 36.1677 94.8219C36.2079 94.7548 36.2414 94.661 36.2615 94.5469C36.275 94.4732 36.275 94.386 36.2615 94.2988C36.2481 94.2116 36.2079 94.1312 36.1475 94.0574C36.0805 93.9836 36 93.9233 35.8927 93.8629C35.7854 93.8025 35.6378 93.7556 35.4501 93.7221L24.7869 91.737Z" fill="white"/>
<path d="M38.7832 110.28L26.6513 111.367L26.6647 111.682L38.8502 111.742L39.0984 117.651L18.9322 118.502L18.7511 114.264H30.8428L30.8294 113.955L18.7042 113.285L18.5835 110.374L30.608 108.684L30.5946 108.369L18.5432 109.395L18.3689 105.19L38.535 104.338L38.7832 110.273V110.28Z" fill="white"/>
<path d="M41.3987 127.073L29.8972 131.09L29.9843 131.392L41.8145 128.481L43.4978 134.148L24.1431 139.896L22.9359 135.832L34.6654 132.894L34.5782 132.592L22.661 134.899L21.8294 132.11L33.076 127.536L32.9888 127.234L21.5544 131.171L20.3539 127.133L39.7086 121.386L41.3987 127.08V127.073Z" fill="white"/>
<path d="M43.0015 139.279C43.699 139.158 44.3428 139.185 44.9463 139.346C45.5499 139.513 46.1066 139.815 46.6162 140.271C47.1259 140.721 47.5887 141.304 47.9978 142.022C48.4069 142.739 48.6751 143.443 48.8025 144.134C48.9299 144.825 48.9165 145.482 48.7623 146.099C48.608 146.716 48.2995 147.3 47.8502 147.849C47.4009 148.399 46.7973 148.882 46.0462 149.311L37.2541 154.321C36.4829 154.757 35.7519 155.032 35.0544 155.146C34.3569 155.26 33.6997 155.22 33.0827 155.039C32.4724 154.858 31.9024 154.536 31.3726 154.073C30.8428 153.61 30.3733 153.02 29.9642 152.303C29.5551 151.585 29.2869 150.887 29.1595 150.224C29.032 149.553 29.0522 148.916 29.2198 148.312C29.3875 147.709 29.7027 147.139 30.1654 146.595C30.6282 146.052 31.2452 145.563 32.0164 145.127L40.8085 140.117C41.5797 139.681 42.3107 139.399 43.0015 139.279ZM33.968 149.325C33.8204 149.412 33.6997 149.499 33.6058 149.6C33.5186 149.694 33.4516 149.788 33.4113 149.875C33.3711 149.962 33.3644 150.049 33.3778 150.143C33.3979 150.23 33.4247 150.311 33.4583 150.378C33.5119 150.478 33.5723 150.552 33.6393 150.606C33.6997 150.659 33.7802 150.693 33.8741 150.7C33.968 150.713 34.082 150.7 34.2094 150.673C34.3368 150.646 34.4776 150.586 34.6252 150.505L44.0477 145.133C44.2153 145.04 44.3361 144.946 44.4232 144.852C44.5037 144.758 44.5641 144.671 44.6043 144.583C44.6446 144.496 44.658 144.409 44.6446 144.329C44.6311 144.248 44.5976 144.154 44.5373 144.054C44.497 143.987 44.4434 143.92 44.3763 143.859C44.3092 143.799 44.2288 143.765 44.1282 143.752C44.0343 143.738 43.927 143.752 43.8063 143.772C43.6855 143.799 43.5447 143.852 43.377 143.953L33.9545 149.325H33.968Z" fill="white"/>
<path d="M60.0157 158.224L44.9732 171.684L41.6267 167.942L49.2653 158.358L49.0909 158.164L40.7616 166.969L37.7034 163.556L52.7459 150.096L56.0723 153.811L48.4471 163.536L48.6215 163.73L56.9441 154.777L60.0224 158.218L60.0157 158.224Z" fill="white"/>
<path d="M66.3867 163.422L59.5462 173.522L59.8077 173.703L67.3122 164.066L69.7735 165.776L63.3823 176.191L63.617 176.358L70.7191 166.44L74.5082 169.069L61.6386 184.708L57.4471 181.797L61.9672 174.581L61.7057 174.4L56.5417 181.174L52.3234 178.243L62.5842 160.793L66.3733 163.422H66.3867Z" fill="white"/>
<path d="M80.7384 176.03L79.3636 179.329L81.9456 180.402L80.4098 184.104L77.8279 183.031L76.0708 187.263L78.7064 188.356L77.1706 192.058L70.3033 189.201L78.0559 170.564L84.8964 173.408L83.3607 177.11L80.7519 176.023L80.7384 176.03Z" fill="white"/>
<path d="M97.3972 176.546L94.9896 196.665L90.4694 195.727L92.3607 183.628L92.079 183.568L89.0008 195.418L84.4806 194.479L90.3622 175.084L97.3905 176.539L97.3972 176.546ZM89.0343 190.744L89.8458 186.847L93.0112 187.504L92.1997 191.401L89.0343 190.744Z" fill="white"/>
<path d="M107.645 177.257L107.336 193.433L110.159 193.487L110.086 197.497L102.675 197.356L103.057 177.177L107.645 177.264V177.257Z" fill="white"/>
<path d="M124.276 179.631L121.54 180.054L124.001 196.042L119.441 196.746L116.98 180.758L114.244 181.18L113.633 177.217L123.666 175.674L124.276 179.638V179.631Z" fill="white"/>
<path d="M137.233 171.02L144.329 189.919L140.01 191.542L137.072 183.715L135.912 184.151L138.849 191.978L134.557 193.587L127.462 174.689L131.754 173.079L134.51 180.422L135.671 179.987L132.914 172.643L137.233 171.02Z" fill="white"/>
<path d="M161.705 173.589C161.819 173.723 161.926 173.823 162.034 173.897C162.141 173.971 162.248 174.018 162.335 174.038C162.429 174.058 162.516 174.058 162.604 174.025C162.691 173.991 162.758 173.951 162.818 173.904C162.905 173.83 162.972 173.756 163.013 173.689C163.053 173.622 163.073 173.535 163.066 173.434C163.066 173.341 163.033 173.233 162.986 173.113C162.932 172.992 162.852 172.864 162.744 172.73L159.626 168.988L163.174 166.037L166.051 169.491C166.614 170.168 167.016 170.846 167.251 171.516C167.486 172.187 167.566 172.838 167.493 173.475C167.419 174.112 167.204 174.729 166.842 175.332C166.48 175.936 165.984 176.499 165.347 177.029C164.709 177.559 164.072 177.941 163.442 178.189C162.805 178.431 162.174 178.525 161.551 178.471C160.927 178.417 160.31 178.203 159.693 177.841C159.076 177.478 158.486 176.955 157.923 176.278L151.444 168.499C150.881 167.821 150.472 167.151 150.237 166.487C149.996 165.823 149.908 165.179 149.962 164.555C150.016 163.931 150.224 163.328 150.579 162.751C150.934 162.168 151.424 161.611 152.061 161.081C152.698 160.551 153.342 160.162 153.999 159.914C154.656 159.666 155.307 159.566 155.944 159.613C156.581 159.659 157.212 159.854 157.829 160.203C158.446 160.551 159.029 161.061 159.586 161.725L162.483 165.206L158.935 168.156L155.817 164.414C155.696 164.267 155.582 164.159 155.475 164.099C155.367 164.032 155.273 163.992 155.18 163.972C155.086 163.952 154.999 163.952 154.925 163.978C154.844 164.005 154.764 164.059 154.677 164.133C154.616 164.18 154.563 164.247 154.516 164.32C154.469 164.401 154.449 164.488 154.449 164.582C154.449 164.676 154.475 164.783 154.522 164.897C154.569 165.011 154.65 165.139 154.77 165.286L161.712 173.616L161.705 173.589Z" fill="white"/>
<path d="M162.349 150.928C163.408 149.586 164.569 148.822 165.836 148.648C167.104 148.473 168.452 148.949 169.887 150.076L170.001 150.163C170.651 150.673 171.161 151.196 171.53 151.719C171.899 152.242 172.16 152.752 172.314 153.235C172.469 153.724 172.522 154.167 172.475 154.569C172.428 154.972 172.314 155.314 172.147 155.595L172.375 155.776C172.589 155.535 172.905 155.347 173.307 155.227C173.709 155.106 174.165 155.059 174.675 155.092C175.185 155.126 175.735 155.26 176.311 155.481C176.895 155.709 177.485 156.058 178.089 156.534L178.29 156.695C178.94 157.205 179.531 157.654 180.06 158.037C180.59 158.419 181.133 158.741 181.683 159.002L178.826 162.624C178.263 162.349 177.7 162.013 177.143 161.611C176.586 161.209 176.003 160.766 175.386 160.276L173.555 158.828C173.267 158.6 173.032 158.486 172.858 158.479C172.677 158.479 172.496 158.593 172.301 158.835L171.999 159.217L177.867 163.844L175.031 167.446L159.183 154.945L162.362 150.914L162.349 150.928ZM168.867 156.769L169.169 156.387C169.357 156.145 169.424 155.937 169.37 155.756C169.317 155.575 169.136 155.367 168.834 155.133L166.708 153.456C166.42 153.228 166.185 153.114 166.01 153.107C165.829 153.107 165.648 153.221 165.454 153.463L165.152 153.845L168.867 156.776V156.769Z" fill="white"/>
<path d="M173.495 140.882L176.667 142.531L177.955 140.05L181.516 141.894L180.228 144.376L184.299 146.488L185.613 143.953L189.174 145.797L185.747 152.403L167.828 143.108L171.241 136.529L174.796 138.373L173.495 140.882Z" fill="white"/>
<path d="M175.42 124.33L195.257 128.434L193.943 132.854L182.052 129.943L181.972 130.218L193.52 134.289L192.206 138.709L173.381 131.204L175.433 124.323L175.42 124.33ZM188.852 133.867L185.037 132.733L185.962 129.635L189.778 130.768L188.852 133.867Z" fill="white"/>
<path d="M181.395 110.347L181.12 113.104L197.215 114.713L196.759 119.307L180.664 117.697L180.389 120.454L176.399 120.058L177.411 109.958L181.402 110.354L181.395 110.347Z" fill="white"/>
<path d="M176.955 101.166L197.101 99.8651L197.396 104.439L177.25 105.74L176.955 101.166Z" fill="white"/>
<path d="M175.534 92.5753L190.066 88.4844L189.999 88.2027L175.192 91.1133L174.118 86.6267L194.177 83.7094L195.847 90.6908L176.613 97.0619L175.54 92.5753H175.534Z" fill="white"/>
<path d="M174.44 77.07L177.7 75.6013L176.546 73.0529L180.201 71.4031L181.355 73.9516L185.533 72.0671L184.359 69.465L188.014 67.8152L191.079 74.5954L172.683 82.8979L169.632 76.1446L173.287 74.4948L174.447 77.07H174.44Z" fill="white"/>
</g>
<defs>
<clipPath id="clip0_40_310">
<rect width="216" height="216" fill="white"/>
</clipPath>
</defs>
</svg>
