<svg width="48" height="48" viewBox="0 0 48 48" fill="none" xmlns="http://www.w3.org/2000/svg">
<g clip-path="url(#clip0_72_431)">
<g clip-path="url(#clip1_72_431)">
<path d="M24 45C35.598 45 45 35.598 45 24C45 12.402 35.598 3 24 3C12.402 3 3 12.402 3 24C3 35.598 12.402 45 24 45Z" stroke="#5BDEB8" stroke-linecap="round" stroke-linejoin="round"/>
<path d="M17.4029 32.792C16.0029 32.792 14.9109 32.288 14.1269 31.28C13.2869 30.272 12.8669 28.9 12.8669 27.164C12.8669 24.588 13.4269 22.236 14.5469 20.108C15.7229 17.98 17.5989 15.992 20.1749 14.144C20.8469 13.64 21.3789 13.528 21.7709 13.808C21.9949 13.976 22.1069 14.228 22.1069 14.564C22.1069 14.844 21.9109 15.124 21.5189 15.404C19.6149 17.028 18.3829 18.288 17.8229 19.184C17.3189 20.024 17.0669 20.92 17.0669 21.872C17.0669 22.88 17.2909 23.664 17.7389 24.224C18.1869 24.728 18.6909 25.176 19.2509 25.568C19.8109 25.904 20.3149 26.324 20.7629 26.828C21.2109 27.332 21.4349 28.088 21.4349 29.096C21.4349 30.104 21.0709 30.972 20.3429 31.7C19.6709 32.428 18.6909 32.792 17.4029 32.792ZM30.0029 32.792C28.6029 32.792 27.4829 32.288 26.6429 31.28C25.8589 30.272 25.4669 28.9 25.4669 27.164C25.4669 24.588 26.0269 22.236 27.1469 20.108C28.3229 17.98 30.1989 15.992 32.7749 14.144C33.4469 13.64 33.9789 13.528 34.3709 13.808C34.5949 13.976 34.7069 14.228 34.7069 14.564C34.7069 14.844 34.5109 15.124 34.1189 15.404C32.2149 17.028 30.9829 18.288 30.4229 19.184C29.9189 20.024 29.6669 20.92 29.6669 21.872C29.6669 22.88 29.8909 23.664 30.3389 24.224C30.7869 24.728 31.2909 25.176 31.8509 25.568C32.4109 25.904 32.9149 26.324 33.3629 26.828C33.8109 27.332 34.0349 28.088 34.0349 29.096C34.0349 30.104 33.6709 30.972 32.9429 31.7C32.2709 32.428 31.2909 32.792 30.0029 32.792Z" fill="#5BDEB8"/>
</g>
</g>
<defs>
<clipPath id="clip0_72_431">
<rect width="48" height="48" fill="white"/>
</clipPath>
<clipPath id="clip1_72_431">
<rect width="48" height="48" fill="white"/>
</clipPath>
</defs>
</svg>
