<svg width="48" height="48" viewBox="0 0 48 48" fill="none" xmlns="http://www.w3.org/2000/svg">
<g clip-path="url(#clip0_313_1168)">
<path d="M24 45C35.598 45 45 35.598 45 24C45 12.402 35.598 3 24 3C12.402 3 3 12.402 3 24C3 35.598 12.402 45 24 45Z" stroke="#5BDEB8" stroke-linecap="round" stroke-linejoin="round"/>
<path d="M24.4438 29.914C24.1718 29.914 24.0358 29.7327 24.0358 29.37C24.0132 28.1687 23.9565 26.888 23.8658 25.528C23.7978 24.1453 23.7072 22.7627 23.5938 21.38C23.4805 19.9973 23.3672 18.694 23.2538 17.47C23.1632 16.246 23.0725 15.192 22.9818 14.308C22.9138 13.4013 22.8798 12.7667 22.8798 12.404C22.8798 11.8373 23.0158 11.384 23.2878 11.044C23.5598 10.6813 23.9452 10.5 24.4438 10.5C24.9425 10.5 25.3278 10.6813 25.5998 11.044C25.8718 11.384 26.0078 11.8373 26.0078 12.404C26.0078 12.7893 25.9625 13.424 25.8718 14.308C25.8038 15.192 25.7132 16.246 25.5998 17.47C25.5092 18.694 25.4072 19.9973 25.2938 21.38C25.1805 22.7627 25.0785 24.1453 24.9878 25.528C24.9198 26.888 24.8745 28.1687 24.8518 29.37C24.8518 29.7327 24.7158 29.914 24.4438 29.914ZM24.4438 36.306C23.9452 36.306 23.5145 36.1473 23.1518 35.83C22.8118 35.49 22.6418 35.048 22.6418 34.504C22.6418 33.9827 22.8118 33.5633 23.1518 33.246C23.5145 32.906 23.9452 32.736 24.4438 32.736C24.8972 32.736 25.3052 32.906 25.6678 33.246C26.0305 33.5633 26.2118 33.9827 26.2118 34.504C26.2118 35.048 26.0305 35.49 25.6678 35.83C25.3052 36.1473 24.8972 36.306 24.4438 36.306Z" fill="#5BDEB8"/>
</g>
<defs>
<clipPath id="clip0_313_1168">
<rect width="48" height="48" fill="white"/>
</clipPath>
</defs>
</svg>
