<svg width="315" height="315" viewBox="0 0 315 315" fill="none" xmlns="http://www.w3.org/2000/svg">
<g clip-path="url(#clip0_195_1122)">
<rect x="6" y="6" width="302.07" height="302.07" rx="151.035" fill="#202123"/>
<path d="M191.27 145.14C194.04 145.14 196.28 142.9 196.28 140.13V129.49H163.1V139.5H186.26V140.13C186.26 142.9 188.5 145.14 191.27 145.14Z" fill="white"/>
<path d="M117.8 184.58H127.81H150.55V174.56H127.81H117.8H106.14V139.51H150.56V129.5H101.13C98.3601 129.5 96.1201 131.74 96.1201 134.51V179.58C96.1201 182.35 98.3601 184.59 101.13 184.59H117.8V184.58Z" fill="white"/>
<path d="M212.94 191.46C210.17 191.46 207.93 193.7 207.93 196.47V197.1H177.38V197.15H159.5V197.1H127.81V185.85H117.8V202.11C117.8 204.88 120.04 207.12 122.81 207.12H217.95V196.48C217.95 193.71 215.71 191.47 212.94 191.47V191.46Z" fill="white"/>
<path d="M161.83 188.51V184.58V174.56V170.63V163.32H151.82V170.63V174.56V184.58V188.51V195.89H161.83V188.51Z" fill="white"/>
<path d="M196.27 173.94C196.27 171.17 194.03 168.93 191.26 168.93C188.49 168.93 186.25 171.17 186.25 173.94V174.57H163.09V184.59H196.27V173.95V173.94Z" fill="white"/>
<path d="M161.83 152.03H122.8C120.03 152.03 117.79 154.27 117.79 157.04V173.3H127.8V162.05H151.8L161.82 162.06L207.92 162.05V162.68C207.92 165.45 210.16 167.69 212.93 167.69C215.7 167.69 217.94 165.45 217.94 162.68V152.04H161.82L161.83 152.03Z" fill="white"/>
<path d="M217.95 111.97C217.95 114.74 215.71 116.98 212.94 116.98H161.88V150.77H151.86V116.98H106.13V117.61C106.13 120.38 103.89 122.62 101.12 122.62C98.35 122.62 96.11 120.38 96.11 117.61V111.98C96.11 109.21 98.35 106.97 101.12 106.97H217.94V111.98L217.95 111.97Z" fill="white"/>
<path d="M148.89 85.0297V88.8797H151.75V91.9497H148.89V96.6397H151.88V99.7097H145.34V81.9697H151.8V85.0397H148.89V85.0297Z" fill="white"/>
<path d="M158.14 88.2497V86.0997C158.14 85.6797 158.05 85.3497 157.87 85.1197C157.69 84.8897 157.44 84.7797 157.12 84.7797C156.8 84.7797 156.55 84.8897 156.37 85.1197C156.19 85.3497 156.1 85.6697 156.1 86.0997V87.2897C156.1 87.5397 156.13 87.7697 156.18 87.9697C156.23 88.1697 156.33 88.3597 156.48 88.5297C156.63 88.6997 156.86 88.8697 157.15 89.0497C157.45 89.2297 157.85 89.4297 158.35 89.6697L159.19 90.0497C159.66 90.2697 160.06 90.5197 160.38 90.7997C160.7 91.0797 160.96 91.3997 161.15 91.7797C161.34 92.1597 161.48 92.5997 161.57 93.1097C161.65 93.6297 161.7 94.2297 161.7 94.9197V95.3297C161.7 96.8197 161.29 97.9597 160.48 98.7597C159.67 99.5597 158.53 99.9597 157.06 99.9597C155.59 99.9597 154.47 99.5597 153.69 98.7697C152.91 97.9797 152.52 96.8297 152.52 95.3197V93.4197H156.07V95.5697C156.07 95.9897 156.16 96.3197 156.34 96.5497C156.52 96.7797 156.78 96.8897 157.11 96.8897C157.44 96.8897 157.68 96.7797 157.87 96.5597C158.06 96.3397 158.15 96.0197 158.15 95.5997V94.3297C158.15 94.0597 158.12 93.8297 158.07 93.6297C158.02 93.4397 157.92 93.2597 157.78 93.0997C157.64 92.9397 157.43 92.7697 157.15 92.6097C156.87 92.4497 156.5 92.2497 156.02 92.0297L155.06 91.5697C154.59 91.3497 154.19 91.0997 153.87 90.8097C153.55 90.5197 153.29 90.1897 153.1 89.7997C152.91 89.4097 152.77 88.9597 152.68 88.4397C152.6 87.9197 152.55 87.3197 152.55 86.6297V86.3297C152.55 84.8397 152.94 83.6997 153.72 82.9097C154.5 82.1197 155.61 81.7197 157.07 81.7197C158.53 81.7197 159.67 82.1197 160.47 82.9197C161.26 83.7197 161.66 84.8597 161.66 86.3297V88.2597H158.14V88.2497Z" fill="white"/>
<path d="M170.92 85.03H168.34V99.7H164.79V85.03H162.2V81.96H170.92V85.03Z" fill="white"/>
<path d="M140.88 232.55V218.08L140.78 217.88H139.54V214.81H144.43V232.55H140.88Z" fill="white"/>
<path d="M149.04 226.29V228.42C149.04 228.67 149.07 228.88 149.13 229.05C149.19 229.22 149.26 229.35 149.36 229.44C149.45 229.53 149.56 229.6 149.69 229.65C149.82 229.7 149.94 229.73 150.06 229.73C150.21 229.73 150.35 229.7 150.47 229.65C150.59 229.6 150.69 229.53 150.79 229.44C150.88 229.35 150.95 229.22 151.01 229.05C151.07 228.88 151.09 228.66 151.09 228.39V224.72H150.86C150.72 224.92 150.57 225.09 150.4 225.21C150.23 225.34 150.05 225.44 149.86 225.53C149.67 225.61 149.46 225.67 149.25 225.71C149.04 225.75 148.83 225.76 148.63 225.76C148.22 225.76 147.83 225.69 147.45 225.56C147.07 225.43 146.73 225.21 146.44 224.91C146.14 224.62 145.91 224.23 145.74 223.77C145.57 223.31 145.49 222.76 145.49 222.14V219.2C145.49 218.42 145.6 217.75 145.82 217.17C146.04 216.59 146.35 216.11 146.76 215.72C147.17 215.33 147.66 215.04 148.23 214.85C148.8 214.66 149.44 214.56 150.13 214.56C150.82 214.56 151.45 214.65 152.01 214.84C152.57 215.03 153.04 215.31 153.43 215.7C153.82 216.09 154.12 216.58 154.34 217.16C154.56 217.74 154.67 218.42 154.67 219.2V228.2C154.67 228.98 154.56 229.66 154.35 230.24C154.14 230.82 153.84 231.3 153.45 231.69C153.06 232.07 152.58 232.35 152.02 232.54C151.45 232.73 150.83 232.82 150.16 232.82C149.45 232.82 148.81 232.72 148.25 232.53C147.68 232.34 147.2 232.04 146.79 231.66C146.38 231.27 146.07 230.79 145.85 230.21C145.63 229.64 145.52 228.97 145.52 228.21V226.31H149.07L149.04 226.29ZM151.09 218.94C151.09 218.7 151.06 218.5 151 218.33C150.94 218.16 150.86 218.03 150.77 217.92C150.68 217.82 150.57 217.74 150.44 217.69C150.31 217.64 150.18 217.61 150.05 217.61C149.92 217.61 149.78 217.64 149.66 217.69C149.53 217.74 149.42 217.82 149.33 217.92C149.24 218.02 149.16 218.16 149.1 218.33C149.04 218.5 149.01 218.7 149.01 218.94V221.2C149.01 221.44 149.04 221.64 149.09 221.81C149.14 221.98 149.21 222.11 149.31 222.2C149.4 222.29 149.51 222.36 149.63 222.4C149.75 222.44 149.88 222.46 150.04 222.46C150.18 222.46 150.31 222.44 150.43 222.4C150.55 222.36 150.67 222.29 150.77 222.2C150.87 222.11 150.95 221.98 151.01 221.81C151.07 221.64 151.1 221.44 151.1 221.2V218.94H151.09Z" fill="white"/>
<path d="M155.74 217.05C155.92 216.5 156.19 216.04 156.55 215.67C156.91 215.3 157.37 215.02 157.93 214.83C158.49 214.64 159.16 214.55 159.96 214.55C160.76 214.55 161.47 214.64 162.06 214.83C162.65 215.02 163.14 215.3 163.52 215.68C163.9 216.06 164.18 216.53 164.37 217.07C164.56 217.61 164.65 218.26 164.65 218.98V219.49C164.65 220 164.59 220.47 164.46 220.9C164.33 221.33 164.16 221.7 163.93 222.02C163.7 222.34 163.44 222.58 163.16 222.75C162.87 222.93 162.58 223.03 162.27 223.07V223.32C162.59 223.35 162.89 223.46 163.18 223.62C163.47 223.79 163.72 224.04 163.95 224.38C164.18 224.72 164.36 225.14 164.48 225.66C164.61 226.18 164.67 226.79 164.67 227.5V228.16C164.67 228.94 164.58 229.61 164.39 230.19C164.2 230.77 163.92 231.25 163.53 231.64C163.14 232.03 162.66 232.32 162.07 232.51C161.48 232.7 160.79 232.8 159.98 232.8C159.17 232.8 158.5 232.71 157.93 232.52C157.36 232.33 156.89 232.05 156.52 231.66C156.15 231.27 155.89 230.78 155.71 230.2C155.53 229.62 155.44 228.94 155.44 228.16V227.5C155.44 226.83 155.49 226.23 155.61 225.73C155.72 225.22 155.88 224.8 156.08 224.45C156.28 224.1 156.52 223.84 156.79 223.65C157.06 223.46 157.35 223.35 157.65 223.32V223.07C157.35 223.04 157.06 222.93 156.79 222.74C156.52 222.55 156.29 222.31 156.09 222.01C155.9 221.71 155.74 221.34 155.63 220.91C155.52 220.48 155.46 220.01 155.46 219.5V218.99C155.46 218.25 155.55 217.6 155.73 217.05H155.74ZM159 228.42C159 228.67 159.03 228.88 159.09 229.04C159.15 229.2 159.22 229.33 159.32 229.43C159.41 229.53 159.53 229.61 159.66 229.66C159.79 229.71 159.93 229.74 160.07 229.74C160.22 229.74 160.36 229.71 160.49 229.66C160.62 229.61 160.73 229.53 160.82 229.43C160.91 229.33 160.99 229.2 161.05 229.04C161.11 228.88 161.14 228.67 161.14 228.42V226.04C161.14 225.63 161.05 225.32 160.87 225.09C160.69 224.86 160.43 224.75 160.07 224.75C159.71 224.75 159.45 224.86 159.27 225.09C159.09 225.32 159 225.63 159 226.04V228.42ZM159.03 220.41C159.03 220.63 159.06 220.82 159.12 220.98C159.18 221.14 159.25 221.27 159.35 221.37C159.44 221.47 159.55 221.54 159.68 221.58C159.81 221.62 159.94 221.64 160.07 221.64C160.2 221.64 160.34 221.62 160.46 221.58C160.59 221.54 160.7 221.47 160.79 221.37C160.88 221.27 160.96 221.14 161.02 220.98C161.08 220.82 161.11 220.63 161.11 220.41V218.94C161.11 218.69 161.08 218.48 161.02 218.31C160.96 218.14 160.88 218.01 160.79 217.92C160.7 217.83 160.59 217.76 160.47 217.71C160.35 217.66 160.22 217.63 160.06 217.63C159.92 217.63 159.79 217.66 159.67 217.71C159.54 217.76 159.43 217.83 159.34 217.92C159.25 218.01 159.17 218.14 159.11 218.31C159.05 218.48 159.02 218.69 159.02 218.94V220.41H159.03Z" fill="white"/>
<path d="M165.54 214.81H174.08V217.88H169.09V220.67H169.17C169.58 220.35 169.99 220.1 170.42 219.94C170.85 219.78 171.27 219.69 171.67 219.69C172.13 219.69 172.53 219.77 172.89 219.94C173.25 220.11 173.55 220.35 173.8 220.65C174.05 220.95 174.25 221.32 174.38 221.74C174.52 222.16 174.58 222.64 174.58 223.16V228.18C174.58 229.68 174.2 230.83 173.44 231.63C172.68 232.43 171.57 232.82 170.12 232.82C168.67 232.82 167.49 232.42 166.69 231.62C165.89 230.82 165.49 229.67 165.49 228.19V225.66H169.04V228.45C169.04 228.87 169.13 229.2 169.31 229.43C169.49 229.66 169.75 229.77 170.08 229.77C170.41 229.77 170.64 229.66 170.8 229.44C170.96 229.22 171.04 228.89 171.04 228.45V223.46C171.04 223.26 171.01 223.08 170.96 222.93C170.91 222.78 170.84 222.66 170.76 222.56C170.68 222.47 170.58 222.39 170.47 222.34C170.36 222.29 170.25 222.26 170.15 222.26C169.93 222.26 169.72 222.33 169.53 222.48C169.34 222.63 169.19 222.85 169.09 223.15V224.77H165.54V214.83V214.81Z" fill="white"/>
<path d="M58.3 116.32L60.78 111.53L33.58 97.4599L36.98 90.8799L64.18 104.95L66.66 100.16L72.35 103.1L63.99 119.26L58.3 116.32Z" fill="white"/>
<path d="M58.63 136.93L23.19 126.19L25.34 119.1L40.43 123.67L41.55 119.97L26.46 115.4L28.61 108.31L64.05 119.05L61.9 126.14L47.72 121.85L46.6 125.55L60.78 129.84L58.63 136.93Z" fill="white"/>
<path d="M51.45 143.98L43.48 142.95L42.71 148.88L36.36 148.06L37.13 142.13L27.42 140.87L26.62 147.06L20.27 146.24L22.02 132.7L58.74 137.46L57.01 150.84L50.66 150.02L51.44 143.99L51.45 143.98Z" fill="white"/>
<path d="M29.4 171.12C28.88 171.19 28.45 171.3 28.14 171.47C27.82 171.63 27.57 171.83 27.39 172.05C27.2 172.27 27.08 172.52 27 172.79C26.93 173.07 26.91 173.34 26.95 173.62C26.99 173.9 27.07 174.16 27.21 174.41C27.35 174.66 27.53 174.87 27.77 175.03C28 175.2 28.29 175.32 28.64 175.4C28.99 175.48 29.42 175.49 29.95 175.42L38.29 174.37L39.22 181.72L31.4 182.71C29.79 182.91 28.36 182.86 27.12 182.56C25.87 182.26 24.79 181.73 23.88 180.97C22.97 180.21 22.23 179.28 21.68 178.15C21.13 177.03 20.76 175.75 20.58 174.32C20.4 172.88 20.43 171.57 20.67 170.36C20.91 169.15 21.38 168.09 22.08 167.17C22.78 166.25 23.71 165.49 24.86 164.9C26.01 164.31 27.39 163.91 29 163.71L47.63 161.36C49.24 161.16 50.67 161.2 51.94 161.48C53.2 161.76 54.28 162.27 55.17 162.99C56.06 163.71 56.77 164.63 57.3 165.73C57.83 166.84 58.19 168.11 58.37 169.54C58.55 170.97 58.51 172.3 58.26 173.53C58.01 174.75 57.53 175.84 56.83 176.8C56.13 177.76 55.22 178.54 54.09 179.15C52.96 179.75 51.6 180.16 50.03 180.36L42.16 181.35L41.23 174L49.57 172.95C50.09 172.88 50.52 172.77 50.86 172.6C51.19 172.43 51.44 172.24 51.61 172.02C51.78 171.8 51.9 171.56 51.97 171.28C52.04 171 52.06 170.73 52.03 170.45C51.99 170.17 51.91 169.91 51.77 169.66C51.63 169.41 51.45 169.2 51.24 169.03C51.02 168.86 50.73 168.74 50.37 168.66C50 168.58 49.56 168.58 49.04 168.64L29.41 171.12H29.4Z" fill="white"/>
<path d="M54.65 181.31C55.94 181.35 57.1 181.64 58.11 182.18C59.12 182.72 59.99 183.48 60.73 184.47C61.46 185.45 62.05 186.63 62.5 188.01C62.95 189.38 63.17 190.69 63.15 191.94C63.13 193.19 62.87 194.35 62.37 195.42C61.87 196.49 61.12 197.44 60.12 198.25C59.12 199.06 57.87 199.71 56.36 200.21L38.52 206.07C36.98 206.58 35.57 206.8 34.29 206.74C33.01 206.68 31.85 206.36 30.81 205.8C29.77 205.23 28.87 204.45 28.12 203.46C27.37 202.46 26.76 201.28 26.31 199.91C25.86 198.54 25.64 197.24 25.64 196.01C25.64 194.78 25.9 193.65 26.42 192.61C26.93 191.57 27.7 190.65 28.72 189.85C29.74 189.05 31.02 188.4 32.56 187.89L50.4 182.03C51.94 181.52 53.36 181.29 54.65 181.33V181.31ZM34.36 195.08C33.86 195.25 33.47 195.44 33.19 195.66C32.91 195.88 32.7 196.12 32.56 196.37C32.42 196.62 32.34 196.89 32.32 197.17C32.3 197.45 32.34 197.73 32.43 198C32.52 198.27 32.65 198.51 32.84 198.73C33.02 198.95 33.25 199.12 33.51 199.23C33.77 199.35 34.08 199.41 34.44 199.43C34.8 199.44 35.23 199.37 35.73 199.2L54.53 193.03C55.03 192.86 55.43 192.67 55.73 192.44C56.03 192.21 56.24 191.98 56.36 191.73C56.48 191.49 56.55 191.22 56.57 190.94C56.59 190.66 56.55 190.38 56.47 190.11C56.38 189.84 56.25 189.6 56.06 189.38C55.87 189.16 55.66 188.99 55.42 188.87C55.17 188.75 54.87 188.68 54.49 188.67C54.12 188.67 53.68 188.74 53.18 188.91L34.38 195.08H34.36Z" fill="white"/>
<path d="M69.49 205.43L49.59 219.61L49.86 220.07L71.92 209.59L76.76 217.85L44.81 236.57L41.39 230.73L62.65 219.19L62.41 218.78L39.98 228.31L37.52 224.11L56.8 209.19L56.56 208.78L36.13 221.73L32.68 215.84L64.63 197.12L69.5 205.43H69.49Z" fill="white"/>
<path d="M83.07 224.34L66.97 242.72L67.34 243.1L86.4 227.82L93.01 234.74L66.23 260.32L61.55 255.42L79.58 239.3L79.25 238.96L59.61 253.4L56.25 249.88L71.58 230.92L71.25 230.58L54.35 247.89L49.64 242.96L76.42 217.38L83.07 224.34Z" fill="white"/>
<path d="M90.78 238.75C91.83 237.99 92.92 237.52 94.05 237.33C95.18 237.14 96.34 237.21 97.52 237.55C98.7 237.88 99.89 238.46 101.08 239.27C102.28 240.08 103.25 240.99 104 241.99C104.75 242.99 105.25 244.07 105.51 245.22C105.77 246.38 105.75 247.58 105.45 248.83C105.15 250.08 104.56 251.36 103.67 252.67L93.11 268.19C92.2 269.53 91.21 270.57 90.16 271.3C89.11 272.03 87.99 272.49 86.82 272.68C85.65 272.86 84.46 272.79 83.26 272.46C82.05 272.13 80.85 271.56 79.66 270.75C78.46 269.94 77.5 269.04 76.75 268.07C76.01 267.09 75.52 266.04 75.29 264.9C75.06 263.76 75.11 262.57 75.43 261.31C75.75 260.06 76.37 258.76 77.28 257.42L87.84 241.9C88.75 240.56 89.73 239.51 90.78 238.75ZM83.1 262.02C82.8 262.46 82.61 262.85 82.52 263.2C82.43 263.55 82.41 263.86 82.45 264.15C82.49 264.43 82.59 264.69 82.75 264.93C82.91 265.17 83.1 265.36 83.34 265.52C83.57 265.68 83.83 265.79 84.11 265.85C84.39 265.91 84.67 265.91 84.95 265.85C85.23 265.78 85.51 265.65 85.8 265.44C86.09 265.23 86.38 264.91 86.68 264.47L97.81 248.11C98.11 247.67 98.3 247.27 98.4 246.91C98.5 246.55 98.52 246.23 98.47 245.96C98.42 245.69 98.31 245.44 98.15 245.2C97.99 244.96 97.79 244.77 97.56 244.61C97.33 244.45 97.07 244.34 96.79 244.28C96.51 244.22 96.24 244.21 95.97 244.26C95.7 244.31 95.41 244.45 95.12 244.67C94.82 244.89 94.52 245.22 94.22 245.66L83.09 262.02H83.1Z" fill="white"/>
<path d="M126.7 252.83L112.13 286.87L104.59 283.64L109.39 259.4L109 259.23L100.99 282.1L94.1801 279.18L108.75 245.14L116.24 248.35L111.57 272.82L111.96 272.99L119.88 249.91L126.69 252.83H126.7Z" fill="white"/>
<path d="M132.83 254.25L129.48 278.43L129.95 278.52L136.31 254.9L141.1 255.79L138.53 280.12L139.05 280.22L144.58 256.44L151.86 257.79L141.69 293.57L133.52 292.06L135.42 273.96L134.95 273.87L130.19 291.44L122.08 289.94L125.54 252.92L132.82 254.27L132.83 254.25Z" fill="white"/>
<path d="M158.76 263.4L158.89 271.44L164.87 271.34L164.97 277.74L158.99 277.84L159.15 287.63L165.39 287.53L165.49 293.93L151.84 294.15L151.24 257.13L164.73 256.91L164.83 263.31L158.75 263.41L158.76 263.4Z" fill="white"/>
<path d="M180.03 254.54L190.33 290.33L183.03 291.6L176.71 267.89L176.19 267.98L178.24 292.43L170.94 293.7L168.67 256.51L180.03 254.54ZM175.67 283.53L174.57 277.22L181.19 276.07L182.29 282.38L175.67 283.53Z" fill="white"/>
<path d="M190.86 251.16L200.93 280.08L206.68 278.08L208.79 284.12L196.05 288.56L183.87 253.59L190.86 251.15V251.16Z" fill="white"/>
<path d="M214.34 247.14L209.56 249.64L223.76 276.78L217.2 280.21L203 253.07L198.22 255.57L195.25 249.9L211.37 241.46L214.34 247.13V247.14Z" fill="white"/>
<path d="M225.93 230.08L248.74 259.25L242.91 263.81L233.2 251.39L230.16 253.77L239.87 266.19L234.04 270.75L211.23 241.58L217.06 237.02L226.19 248.69L229.23 246.31L220.1 234.64L225.93 230.08Z" fill="white"/>
<path d="M259.65 234.23C260.08 234.54 260.46 234.75 260.81 234.84C261.15 234.94 261.47 234.97 261.75 234.94C262.03 234.91 262.3 234.82 262.54 234.66C262.78 234.5 262.98 234.32 263.15 234.09C263.32 233.86 263.43 233.61 263.5 233.33C263.57 233.05 263.58 232.78 263.52 232.49C263.46 232.21 263.34 231.92 263.14 231.62C262.94 231.32 262.63 231.02 262.2 230.71L255.4 225.76L259.76 219.77L266.13 224.41C267.44 225.36 268.45 226.38 269.15 227.46C269.85 228.54 270.27 229.66 270.42 230.84C270.57 232.02 270.46 233.2 270.09 234.39C269.72 235.58 269.11 236.77 268.26 237.93C267.41 239.1 266.48 240.04 265.49 240.75C264.49 241.46 263.42 241.92 262.28 242.11C261.14 242.3 259.94 242.22 258.7 241.86C257.46 241.5 256.18 240.84 254.87 239.89L239.68 228.84C238.37 227.89 237.35 226.87 236.63 225.8C235.91 224.73 235.47 223.62 235.31 222.49C235.16 221.35 235.26 220.2 235.64 219.03C236.01 217.86 236.62 216.69 237.47 215.52C238.32 214.35 239.26 213.41 240.28 212.69C241.3 211.97 242.4 211.5 243.56 211.28C244.73 211.06 245.93 211.11 247.17 211.45C248.41 211.79 249.67 212.42 250.95 213.35L257.37 218.02L253.01 224.01L246.21 219.06C245.78 218.75 245.39 218.54 245.03 218.43C244.67 218.32 244.36 218.29 244.09 218.33C243.82 218.37 243.56 218.47 243.32 218.62C243.08 218.77 242.88 218.96 242.71 219.19C242.54 219.42 242.43 219.67 242.36 219.95C242.29 220.23 242.28 220.5 242.32 220.77C242.36 221.04 242.49 221.33 242.7 221.64C242.91 221.95 243.23 222.26 243.66 222.57L259.66 234.21L259.65 234.23Z" fill="white"/>
<path d="M247.48 199.71C248.78 196.93 250.54 195.13 252.74 194.29C254.94 193.45 257.56 193.75 260.59 195.17L260.78 195.26C262.12 195.89 263.22 196.59 264.09 197.37C264.96 198.15 265.63 198.93 266.11 199.72C266.6 200.51 266.89 201.29 267 202.06C267.11 202.83 267.06 203.52 266.85 204.12L267.28 204.32C267.65 203.79 268.17 203.32 268.84 202.92C269.52 202.52 270.31 202.25 271.23 202.12C272.15 201.99 273.17 202 274.28 202.15C275.4 202.3 276.56 202.67 277.77 203.23L278.3 203.48C279.74 204.15 281 204.72 282.09 205.17C283.18 205.62 284.26 205.96 285.32 206.19L282.17 212.89C281.04 212.63 279.91 212.27 278.77 211.79C277.63 211.31 276.39 210.76 275.05 210.13L271.6 208.51C270.74 208.11 270.03 207.98 269.47 208.13C268.91 208.28 268.46 208.72 268.12 209.45L267.4 210.98L280.23 217L277.08 223.7L243.56 207.97L247.45 199.69L247.48 199.71ZM261.63 208.28L262.35 206.75C262.69 206.02 262.74 205.38 262.48 204.85C262.22 204.32 261.65 203.85 260.75 203.43L256.87 201.61C255.98 201.19 255.23 201.05 254.65 201.18C254.07 201.31 253.6 201.75 253.25 202.48L252.53 204.01L261.63 208.28Z" fill="white"/>
<path d="M259.72 184.93L267.47 187.09L269.08 181.33L275.25 183.05L273.64 188.81L283.07 191.44L284.75 185.43L290.92 187.15L287.25 200.3L251.58 190.36L255.2 177.37L261.37 179.09L259.74 184.95L259.72 184.93Z" fill="white"/>
<path d="M257.05 162.14L294.3 162.12L293.5 169.48L268.97 169.01L268.91 169.54L292.97 174.32L292.17 181.68L255.8 173.6L257.04 162.14H257.05ZM283.72 174.34L277.36 173.65L278.08 166.97L284.44 167.66L283.72 174.34Z" fill="white"/>
<path d="M262.78 142.19L263.07 147.58L293.65 145.95L294.04 153.35L263.46 154.98L263.75 160.37L257.36 160.71L256.39 142.54L262.78 142.2V142.19Z" fill="white"/>
<path d="M254.57 134.64L290.95 127.74L292.33 135.02L255.95 141.92L254.57 134.64Z" fill="white"/>
<path d="M252.52 127.2L279.17 115.87L279 115.37L250.95 122.6L248.57 115.59L284.98 107.65L288.69 118.57L254.9 134.22L252.52 127.21V127.2Z" fill="white"/>
<path d="M250.5 106.18L257.59 102.38L254.77 97.1097L260.41 94.0897L263.23 99.3597L271.85 94.7397L268.9 89.2397L274.54 86.2197L280.99 98.2497L248.36 115.75L241.99 103.86L247.63 100.84L250.5 106.2V106.18Z" fill="white"/>
<path d="M152.83 308.01C69.58 305.69 3.74003 236.08 6.06003 152.83C8.38003 69.58 77.99 3.73997 161.24 6.05997C244.49 8.37997 310.33 77.99 308.01 161.24C305.69 244.49 236.08 310.33 152.83 308.01ZM161.02 14.06C82.18 11.86 16.25 74.21 14.06 153.05C11.86 231.89 74.22 297.82 153.06 300.01C231.9 302.21 297.83 239.85 300.02 161.01C302.22 82.17 239.86 16.24 161.02 14.05V14.06Z" fill="white"/>
<path d="M68.33 83.7101C67.4 83.7101 66.46 83.3901 65.7 82.7201C64.04 81.2701 63.86 78.7401 65.32 77.0801C76.04 64.7901 88.85 54.9301 103.39 47.7801C105.37 46.8001 107.77 47.6201 108.74 49.6001C109.72 51.5801 108.9 53.9801 106.92 54.9501C93.34 61.6301 81.37 70.8401 71.35 82.3301C70.56 83.2401 69.45 83.7001 68.33 83.7001V83.7101Z" fill="white"/>
<path d="M245.74 83.7098C244.62 83.7098 243.52 83.2498 242.72 82.3398C232.7 70.8498 220.73 61.6398 207.15 54.9598C205.17 53.9798 204.35 51.5898 205.33 49.6098C206.3 47.6298 208.7 46.8098 210.68 47.7898C225.22 54.9398 238.02 64.7998 248.75 77.0898C250.2 78.7498 250.03 81.2799 248.37 82.7299C247.61 83.3899 246.67 83.7198 245.74 83.7198V83.7098Z" fill="white"/>
<path d="M157.04 251.04C105.21 251.04 63.04 208.87 63.04 157.04C63.04 105.21 105.21 63.04 157.04 63.04C208.87 63.04 251.04 105.21 251.04 157.04C251.04 208.87 208.87 251.04 157.04 251.04ZM157.04 71.04C109.62 71.04 71.04 109.62 71.04 157.04C71.04 204.46 109.62 243.04 157.04 243.04C204.46 243.04 243.04 204.46 243.04 157.04C243.04 109.62 204.46 71.04 157.04 71.04Z" fill="white"/>
<path d="M157.04 34.8599L158.6 38.0399L162.1 38.5399L159.57 41.0099L160.17 44.4999L157.04 42.8599L153.9 44.4999L154.5 41.0099L151.97 38.5399L155.47 38.0399L157.04 34.8599Z" fill="white"/>
<path d="M160.17 46.4999C159.85 46.4999 159.53 46.4199 159.24 46.2699L157.04 45.1099L154.84 46.2699C154.17 46.6199 153.35 46.5599 152.73 46.1199C152.11 45.6699 151.81 44.9099 151.93 44.1599L152.35 41.7099L150.57 39.9699C150.02 39.4399 149.83 38.6399 150.06 37.9199C150.3 37.1999 150.92 36.6699 151.67 36.5599L154.13 36.1999L155.23 33.9699C155.57 33.2899 156.26 32.8599 157.02 32.8599C157.78 32.8599 158.48 33.2899 158.81 33.9699L159.91 36.1999L162.37 36.5599C163.12 36.6699 163.75 37.1999 163.99 37.9199C164.23 38.6399 164.03 39.4399 163.48 39.9699L161.7 41.7099L162.12 44.1599C162.25 44.9099 161.94 45.6699 161.33 46.1199C160.98 46.3699 160.57 46.4999 160.15 46.4999H160.17ZM156.17 39.9099C156.37 40.2099 156.49 40.5699 156.5 40.9299C156.85 40.8299 157.22 40.8299 157.57 40.9299C157.59 40.5699 157.7 40.2099 157.9 39.9099C157.56 39.7799 157.26 39.5599 157.03 39.2799C156.8 39.5699 156.5 39.7799 156.16 39.9099H156.17Z" fill="white"/>
<path d="M184.04 38.8599L185.6 42.0399L189.1 42.5399L186.57 45.0099L187.17 48.4999L184.04 46.8599L180.9 48.4999L181.5 45.0099L178.97 42.5399L182.47 42.0399L184.04 38.8599Z" fill="white"/>
<path d="M187.17 50.4999C186.85 50.4999 186.53 50.4199 186.24 50.2699L184.04 49.1099L181.84 50.2699C181.17 50.6199 180.35 50.5699 179.73 50.1199C179.11 49.6699 178.81 48.9099 178.94 48.1599L179.36 45.7099L177.58 43.9699C177.04 43.4399 176.84 42.6399 177.07 41.9199C177.3 41.1999 177.93 40.6699 178.69 40.5599L181.15 40.1999L182.25 37.9699C182.59 37.2899 183.28 36.8599 184.04 36.8599C184.8 36.8599 185.5 37.2899 185.83 37.9699L186.93 40.1999L189.39 40.5599C190.14 40.6699 190.77 41.1999 191.01 41.9199C191.25 42.6399 191.05 43.4399 190.5 43.9699L188.72 45.7099L189.14 48.1599C189.27 48.9099 188.96 49.6699 188.35 50.1199C188 50.3699 187.59 50.4999 187.17 50.4999ZM184.04 44.8599C184.22 44.8599 184.4 44.8799 184.58 44.9299C184.6 44.5699 184.71 44.2099 184.91 43.9099C184.57 43.7799 184.27 43.5599 184.04 43.2799C183.81 43.5699 183.51 43.7799 183.17 43.9099C183.37 44.2099 183.49 44.5699 183.5 44.9299C183.68 44.8799 183.86 44.8599 184.04 44.8599Z" fill="white"/>
<path d="M130.04 38.8599L128.47 42.0399L124.97 42.5399L127.5 45.0099L126.9 48.4999L130.04 46.8599L133.17 48.4999L132.57 45.0099L135.1 42.5399L131.6 42.0399L130.04 38.8599Z" fill="white"/>
<path d="M133.17 50.4999C132.85 50.4999 132.53 50.4199 132.24 50.2699L130.04 49.1099L127.84 50.2699C127.17 50.6199 126.35 50.5599 125.73 50.1199C125.11 49.6699 124.81 48.9099 124.93 48.1599L125.35 45.7099L123.57 43.9699C123.02 43.4399 122.83 42.6399 123.06 41.9199C123.3 41.1999 123.92 40.6699 124.67 40.5599L127.13 40.1999L128.23 37.9699C128.57 37.2899 129.26 36.8599 130.02 36.8599C130.78 36.8599 131.48 37.2899 131.81 37.9699L132.91 40.1999L135.37 40.5599C136.12 40.6699 136.75 41.1999 136.98 41.9199C137.21 42.6399 137.02 43.4399 136.47 43.9699L134.69 45.7099L135.11 48.1599C135.24 48.9099 134.93 49.6699 134.31 50.1199C133.96 50.3699 133.55 50.4999 133.13 50.4999H133.17ZM130.04 44.8599C130.22 44.8599 130.4 44.8799 130.58 44.9299C130.6 44.5699 130.71 44.2099 130.91 43.9099C130.57 43.7799 130.27 43.5599 130.04 43.2799C129.81 43.5699 129.51 43.7799 129.17 43.9099C129.37 44.2099 129.49 44.5699 129.5 44.9299C129.68 44.8799 129.86 44.8599 130.04 44.8599Z" fill="white"/>
</g>
<rect x="3" y="3" width="308.07" height="308.07" rx="154.035" stroke="#202123" stroke-width="6"/>
<defs>
<clipPath id="clip0_195_1122">
<rect x="6" y="6" width="302.07" height="302.07" rx="151.035" fill="white"/>
</clipPath>
</defs>
</svg>
